<?xml version="1.0" standalone="no"?>
 <!DOCTYPE svg PUBLIC "-//W3C//DTD SVG 1.1//EN" 
 "http://www.w3.org/Graphics/SVG/1.1/DTD/svg11.dtd"> 
<svg
  xmlns:svg="http://www.w3.org/2000/svg"
  xmlns="http://www.w3.org/2000/svg"
  xmlns:xlink="http://www.w3.org/1999/xlink"
  version="1.1"
  width="56.0578mm" height="40.8178mm" viewBox="0.0000 0.0000 56.0578 40.8178">
<title>SVG Image created as _autosave-LEITERPLATTENEDITOR-brd.svg date 2023/05/22 12:38:24 </title>
  <desc>Image generated by PCBNEW </desc>
<g style="fill:#000000; fill-opacity:1.0000;stroke:#000000; stroke-opacity:1.0000;
stroke-linecap:round; stroke-linejoin:round;"
 transform="translate(0 0) scale(1 1)">
</g>
<g style="fill:#000000; fill-opacity:0.0; 
stroke:#000000; stroke-width:0.0000; stroke-opacity:1; 
stroke-linecap:round; stroke-linejoin:round;">
</g>
<g style="fill:#4D7FC4; fill-opacity:0.0; 
stroke:#4D7FC4; stroke-width:0.0000; stroke-opacity:1; 
stroke-linecap:round; stroke-linejoin:round;">
</g>
<g style="fill:#4D7FC4; fill-opacity:0.0; 
stroke:#4D7FC4; stroke-width:0.3000; stroke-opacity:1; 
stroke-linecap:round; stroke-linejoin:round;">
<g transform="rotate(-270.000000 53.2200 20.4200)">
<text x="53.2200" y="20.4200"
transform="scale(-1 1) translate(-106.440000 0)"
textLength="24.0929" font-size="2.0000" lengthAdjust="spacingAndGlyphs"
text-anchor="middle" opacity="0">Programmier Pandas</text>
</g>
<g class="stroked-text"><desc>Programmier Pandas</desc>
<path d="M53.4036 31.8843
L54.9036 31.8843
" />
<path d="M54.9036 31.8843
L54.9036 31.3129
" />
<path d="M54.9036 31.3129
L54.8321 31.1700
" />
<path d="M54.8321 31.1700
L54.7607 31.0986
" />
<path d="M54.7607 31.0986
L54.6179 31.0271
" />
<path d="M54.6179 31.0271
L54.4036 31.0271
" />
<path d="M54.4036 31.0271
L54.2607 31.0986
" />
<path d="M54.2607 31.0986
L54.1893 31.1700
" />
<path d="M54.1893 31.1700
L54.1179 31.3129
" />
<path d="M54.1179 31.3129
L54.1179 31.8843
" />
<path d="M53.4036 30.3843
L54.4036 30.3843
" />
<path d="M54.1179 30.3843
L54.2607 30.3129
" />
<path d="M54.2607 30.3129
L54.3321 30.2414
" />
<path d="M54.3321 30.2414
L54.4036 30.0986
" />
<path d="M54.4036 30.0986
L54.4036 29.9557
" />
<path d="M53.4036 29.2414
L53.4750 29.3843
" />
<path d="M53.4750 29.3843
L53.5464 29.4557
" />
<path d="M53.5464 29.4557
L53.6893 29.5271
" />
<path d="M53.6893 29.5271
L54.1179 29.5271
" />
<path d="M54.1179 29.5271
L54.2607 29.4557
" />
<path d="M54.2607 29.4557
L54.3321 29.3843
" />
<path d="M54.3321 29.3843
L54.4036 29.2414
" />
<path d="M54.4036 29.2414
L54.4036 29.0271
" />
<path d="M54.4036 29.0271
L54.3321 28.8843
" />
<path d="M54.3321 28.8843
L54.2607 28.8129
" />
<path d="M54.2607 28.8129
L54.1179 28.7414
" />
<path d="M54.1179 28.7414
L53.6893 28.7414
" />
<path d="M53.6893 28.7414
L53.5464 28.8129
" />
<path d="M53.5464 28.8129
L53.4750 28.8843
" />
<path d="M53.4750 28.8843
L53.4036 29.0271
" />
<path d="M53.4036 29.0271
L53.4036 29.2414
" />
<path d="M54.4036 27.4557
L53.1893 27.4557
" />
<path d="M53.1893 27.4557
L53.0464 27.5271
" />
<path d="M53.0464 27.5271
L52.9750 27.5986
" />
<path d="M52.9750 27.5986
L52.9036 27.7414
" />
<path d="M52.9036 27.7414
L52.9036 27.9557
" />
<path d="M52.9036 27.9557
L52.9750 28.0986
" />
<path d="M53.4750 27.4557
L53.4036 27.5986
" />
<path d="M53.4036 27.5986
L53.4036 27.8843
" />
<path d="M53.4036 27.8843
L53.4750 28.0271
" />
<path d="M53.4750 28.0271
L53.5464 28.0986
" />
<path d="M53.5464 28.0986
L53.6893 28.1700
" />
<path d="M53.6893 28.1700
L54.1179 28.1700
" />
<path d="M54.1179 28.1700
L54.2607 28.0986
" />
<path d="M54.2607 28.0986
L54.3321 28.0271
" />
<path d="M54.3321 28.0271
L54.4036 27.8843
" />
<path d="M54.4036 27.8843
L54.4036 27.5986
" />
<path d="M54.4036 27.5986
L54.3321 27.4557
" />
<path d="M53.4036 26.7414
L54.4036 26.7414
" />
<path d="M54.1179 26.7414
L54.2607 26.6700
" />
<path d="M54.2607 26.6700
L54.3321 26.5986
" />
<path d="M54.3321 26.5986
L54.4036 26.4557
" />
<path d="M54.4036 26.4557
L54.4036 26.3129
" />
<path d="M53.4036 25.1700
L54.1893 25.1700
" />
<path d="M54.1893 25.1700
L54.3321 25.2414
" />
<path d="M54.3321 25.2414
L54.4036 25.3843
" />
<path d="M54.4036 25.3843
L54.4036 25.6700
" />
<path d="M54.4036 25.6700
L54.3321 25.8129
" />
<path d="M53.4750 25.1700
L53.4036 25.3129
" />
<path d="M53.4036 25.3129
L53.4036 25.6700
" />
<path d="M53.4036 25.6700
L53.4750 25.8129
" />
<path d="M53.4750 25.8129
L53.6179 25.8843
" />
<path d="M53.6179 25.8843
L53.7607 25.8843
" />
<path d="M53.7607 25.8843
L53.9036 25.8129
" />
<path d="M53.9036 25.8129
L53.9750 25.6700
" />
<path d="M53.9750 25.6700
L53.9750 25.3129
" />
<path d="M53.9750 25.3129
L54.0464 25.1700
" />
<path d="M53.4036 24.4557
L54.4036 24.4557
" />
<path d="M54.2607 24.4557
L54.3321 24.3843
" />
<path d="M54.3321 24.3843
L54.4036 24.2414
" />
<path d="M54.4036 24.2414
L54.4036 24.0271
" />
<path d="M54.4036 24.0271
L54.3321 23.8843
" />
<path d="M54.3321 23.8843
L54.1893 23.8129
" />
<path d="M54.1893 23.8129
L53.4036 23.8129
" />
<path d="M54.1893 23.8129
L54.3321 23.7414
" />
<path d="M54.3321 23.7414
L54.4036 23.5986
" />
<path d="M54.4036 23.5986
L54.4036 23.3843
" />
<path d="M54.4036 23.3843
L54.3321 23.2414
" />
<path d="M54.3321 23.2414
L54.1893 23.1700
" />
<path d="M54.1893 23.1700
L53.4036 23.1700
" />
<path d="M53.4036 22.4557
L54.4036 22.4557
" />
<path d="M54.2607 22.4557
L54.3321 22.3843
" />
<path d="M54.3321 22.3843
L54.4036 22.2414
" />
<path d="M54.4036 22.2414
L54.4036 22.0271
" />
<path d="M54.4036 22.0271
L54.3321 21.8843
" />
<path d="M54.3321 21.8843
L54.1893 21.8129
" />
<path d="M54.1893 21.8129
L53.4036 21.8129
" />
<path d="M54.1893 21.8129
L54.3321 21.7414
" />
<path d="M54.3321 21.7414
L54.4036 21.5986
" />
<path d="M54.4036 21.5986
L54.4036 21.3843
" />
<path d="M54.4036 21.3843
L54.3321 21.2414
" />
<path d="M54.3321 21.2414
L54.1893 21.1700
" />
<path d="M54.1893 21.1700
L53.4036 21.1700
" />
<path d="M53.4036 20.4557
L54.4036 20.4557
" />
<path d="M54.9036 20.4557
L54.8321 20.5271
" />
<path d="M54.8321 20.5271
L54.7607 20.4557
" />
<path d="M54.7607 20.4557
L54.8321 20.3843
" />
<path d="M54.8321 20.3843
L54.9036 20.4557
" />
<path d="M54.9036 20.4557
L54.7607 20.4557
" />
<path d="M53.4750 19.1700
L53.4036 19.3129
" />
<path d="M53.4036 19.3129
L53.4036 19.5986
" />
<path d="M53.4036 19.5986
L53.4750 19.7414
" />
<path d="M53.4750 19.7414
L53.6179 19.8129
" />
<path d="M53.6179 19.8129
L54.1893 19.8129
" />
<path d="M54.1893 19.8129
L54.3321 19.7414
" />
<path d="M54.3321 19.7414
L54.4036 19.5986
" />
<path d="M54.4036 19.5986
L54.4036 19.3129
" />
<path d="M54.4036 19.3129
L54.3321 19.1700
" />
<path d="M54.3321 19.1700
L54.1893 19.0986
" />
<path d="M54.1893 19.0986
L54.0464 19.0986
" />
<path d="M54.0464 19.0986
L53.9036 19.8129
" />
<path d="M53.4036 18.4557
L54.4036 18.4557
" />
<path d="M54.1179 18.4557
L54.2607 18.3843
" />
<path d="M54.2607 18.3843
L54.3321 18.3129
" />
<path d="M54.3321 18.3129
L54.4036 18.1700
" />
<path d="M54.4036 18.1700
L54.4036 18.0271
" />
<path d="M53.4036 16.3843
L54.9036 16.3843
" />
<path d="M54.9036 16.3843
L54.9036 15.8129
" />
<path d="M54.9036 15.8129
L54.8321 15.6700
" />
<path d="M54.8321 15.6700
L54.7607 15.5986
" />
<path d="M54.7607 15.5986
L54.6179 15.5271
" />
<path d="M54.6179 15.5271
L54.4036 15.5271
" />
<path d="M54.4036 15.5271
L54.2607 15.5986
" />
<path d="M54.2607 15.5986
L54.1893 15.6700
" />
<path d="M54.1893 15.6700
L54.1179 15.8129
" />
<path d="M54.1179 15.8129
L54.1179 16.3843
" />
<path d="M53.4036 14.2414
L54.1893 14.2414
" />
<path d="M54.1893 14.2414
L54.3321 14.3129
" />
<path d="M54.3321 14.3129
L54.4036 14.4557
" />
<path d="M54.4036 14.4557
L54.4036 14.7414
" />
<path d="M54.4036 14.7414
L54.3321 14.8843
" />
<path d="M53.4750 14.2414
L53.4036 14.3843
" />
<path d="M53.4036 14.3843
L53.4036 14.7414
" />
<path d="M53.4036 14.7414
L53.4750 14.8843
" />
<path d="M53.4750 14.8843
L53.6179 14.9557
" />
<path d="M53.6179 14.9557
L53.7607 14.9557
" />
<path d="M53.7607 14.9557
L53.9036 14.8843
" />
<path d="M53.9036 14.8843
L53.9750 14.7414
" />
<path d="M53.9750 14.7414
L53.9750 14.3843
" />
<path d="M53.9750 14.3843
L54.0464 14.2414
" />
<path d="M54.4036 13.5271
L53.4036 13.5271
" />
<path d="M54.2607 13.5271
L54.3321 13.4557
" />
<path d="M54.3321 13.4557
L54.4036 13.3129
" />
<path d="M54.4036 13.3129
L54.4036 13.0986
" />
<path d="M54.4036 13.0986
L54.3321 12.9557
" />
<path d="M54.3321 12.9557
L54.1893 12.8843
" />
<path d="M54.1893 12.8843
L53.4036 12.8843
" />
<path d="M53.4036 11.5271
L54.9036 11.5271
" />
<path d="M53.4750 11.5271
L53.4036 11.6700
" />
<path d="M53.4036 11.6700
L53.4036 11.9557
" />
<path d="M53.4036 11.9557
L53.4750 12.0986
" />
<path d="M53.4750 12.0986
L53.5464 12.1700
" />
<path d="M53.5464 12.1700
L53.6893 12.2414
" />
<path d="M53.6893 12.2414
L54.1179 12.2414
" />
<path d="M54.1179 12.2414
L54.2607 12.1700
" />
<path d="M54.2607 12.1700
L54.3321 12.0986
" />
<path d="M54.3321 12.0986
L54.4036 11.9557
" />
<path d="M54.4036 11.9557
L54.4036 11.6700
" />
<path d="M54.4036 11.6700
L54.3321 11.5271
" />
<path d="M53.4036 10.1700
L54.1893 10.1700
" />
<path d="M54.1893 10.1700
L54.3321 10.2414
" />
<path d="M54.3321 10.2414
L54.4036 10.3843
" />
<path d="M54.4036 10.3843
L54.4036 10.6700
" />
<path d="M54.4036 10.6700
L54.3321 10.8129
" />
<path d="M53.4750 10.1700
L53.4036 10.3129
" />
<path d="M53.4036 10.3129
L53.4036 10.6700
" />
<path d="M53.4036 10.6700
L53.4750 10.8129
" />
<path d="M53.4750 10.8129
L53.6179 10.8843
" />
<path d="M53.6179 10.8843
L53.7607 10.8843
" />
<path d="M53.7607 10.8843
L53.9036 10.8129
" />
<path d="M53.9036 10.8129
L53.9750 10.6700
" />
<path d="M53.9750 10.6700
L53.9750 10.3129
" />
<path d="M53.9750 10.3129
L54.0464 10.1700
" />
<path d="M53.4750 9.5271
L53.4036 9.3843
" />
<path d="M53.4036 9.3843
L53.4036 9.0986
" />
<path d="M53.4036 9.0986
L53.4750 8.9557
" />
<path d="M53.4750 8.9557
L53.6179 8.8843
" />
<path d="M53.6179 8.8843
L53.6893 8.8843
" />
<path d="M53.6893 8.8843
L53.8321 8.9557
" />
<path d="M53.8321 8.9557
L53.9036 9.0986
" />
<path d="M53.9036 9.0986
L53.9036 9.3129
" />
<path d="M53.9036 9.3129
L53.9750 9.4557
" />
<path d="M53.9750 9.4557
L54.1179 9.5271
" />
<path d="M54.1179 9.5271
L54.1893 9.5271
" />
<path d="M54.1893 9.5271
L54.3321 9.4557
" />
<path d="M54.3321 9.4557
L54.4036 9.3129
" />
<path d="M54.4036 9.3129
L54.4036 9.0986
" />
<path d="M54.4036 9.0986
L54.3321 8.9557
" />
</g><g transform="rotate(-270.000000 50.7900 20.4200)">
<text x="50.7900" y="20.4200"
transform="scale(-1 1) translate(-101.580000 0)"
textLength="24.3071" font-size="2.0000" lengthAdjust="spacingAndGlyphs"
text-anchor="middle" opacity="0">DualPanto BTT-Test </text>
</g>
<g class="stroked-text"><desc>DualPanto BTT-Test </desc>
<path d="M50.9736 31.9914
L52.4736 31.9914
" />
<path d="M52.4736 31.9914
L52.4736 31.6343
" />
<path d="M52.4736 31.6343
L52.4021 31.4200
" />
<path d="M52.4021 31.4200
L52.2593 31.2771
" />
<path d="M52.2593 31.2771
L52.1164 31.2057
" />
<path d="M52.1164 31.2057
L51.8307 31.1343
" />
<path d="M51.8307 31.1343
L51.6164 31.1343
" />
<path d="M51.6164 31.1343
L51.3307 31.2057
" />
<path d="M51.3307 31.2057
L51.1879 31.2771
" />
<path d="M51.1879 31.2771
L51.0450 31.4200
" />
<path d="M51.0450 31.4200
L50.9736 31.6343
" />
<path d="M50.9736 31.6343
L50.9736 31.9914
" />
<path d="M51.9736 29.8486
L50.9736 29.8486
" />
<path d="M51.9736 30.4914
L51.1879 30.4914
" />
<path d="M51.1879 30.4914
L51.0450 30.4200
" />
<path d="M51.0450 30.4200
L50.9736 30.2771
" />
<path d="M50.9736 30.2771
L50.9736 30.0629
" />
<path d="M50.9736 30.0629
L51.0450 29.9200
" />
<path d="M51.0450 29.9200
L51.1164 29.8486
" />
<path d="M50.9736 28.4914
L51.7593 28.4914
" />
<path d="M51.7593 28.4914
L51.9021 28.5629
" />
<path d="M51.9021 28.5629
L51.9736 28.7057
" />
<path d="M51.9736 28.7057
L51.9736 28.9914
" />
<path d="M51.9736 28.9914
L51.9021 29.1343
" />
<path d="M51.0450 28.4914
L50.9736 28.6343
" />
<path d="M50.9736 28.6343
L50.9736 28.9914
" />
<path d="M50.9736 28.9914
L51.0450 29.1343
" />
<path d="M51.0450 29.1343
L51.1879 29.2057
" />
<path d="M51.1879 29.2057
L51.3307 29.2057
" />
<path d="M51.3307 29.2057
L51.4736 29.1343
" />
<path d="M51.4736 29.1343
L51.5450 28.9914
" />
<path d="M51.5450 28.9914
L51.5450 28.6343
" />
<path d="M51.5450 28.6343
L51.6164 28.4914
" />
<path d="M50.9736 27.5629
L51.0450 27.7057
" />
<path d="M51.0450 27.7057
L51.1879 27.7771
" />
<path d="M51.1879 27.7771
L52.4736 27.7771
" />
<path d="M50.9736 26.9914
L52.4736 26.9914
" />
<path d="M52.4736 26.9914
L52.4736 26.4200
" />
<path d="M52.4736 26.4200
L52.4021 26.2771
" />
<path d="M52.4021 26.2771
L52.3307 26.2057
" />
<path d="M52.3307 26.2057
L52.1879 26.1343
" />
<path d="M52.1879 26.1343
L51.9736 26.1343
" />
<path d="M51.9736 26.1343
L51.8307 26.2057
" />
<path d="M51.8307 26.2057
L51.7593 26.2771
" />
<path d="M51.7593 26.2771
L51.6879 26.4200
" />
<path d="M51.6879 26.4200
L51.6879 26.9914
" />
<path d="M50.9736 24.8486
L51.7593 24.8486
" />
<path d="M51.7593 24.8486
L51.9021 24.9200
" />
<path d="M51.9021 24.9200
L51.9736 25.0629
" />
<path d="M51.9736 25.0629
L51.9736 25.3486
" />
<path d="M51.9736 25.3486
L51.9021 25.4914
" />
<path d="M51.0450 24.8486
L50.9736 24.9914
" />
<path d="M50.9736 24.9914
L50.9736 25.3486
" />
<path d="M50.9736 25.3486
L51.0450 25.4914
" />
<path d="M51.0450 25.4914
L51.1879 25.5629
" />
<path d="M51.1879 25.5629
L51.3307 25.5629
" />
<path d="M51.3307 25.5629
L51.4736 25.4914
" />
<path d="M51.4736 25.4914
L51.5450 25.3486
" />
<path d="M51.5450 25.3486
L51.5450 24.9914
" />
<path d="M51.5450 24.9914
L51.6164 24.8486
" />
<path d="M51.9736 24.1343
L50.9736 24.1343
" />
<path d="M51.8307 24.1343
L51.9021 24.0629
" />
<path d="M51.9021 24.0629
L51.9736 23.9200
" />
<path d="M51.9736 23.9200
L51.9736 23.7057
" />
<path d="M51.9736 23.7057
L51.9021 23.5629
" />
<path d="M51.9021 23.5629
L51.7593 23.4914
" />
<path d="M51.7593 23.4914
L50.9736 23.4914
" />
<path d="M51.9736 22.9914
L51.9736 22.4200
" />
<path d="M52.4736 22.7771
L51.1879 22.7771
" />
<path d="M51.1879 22.7771
L51.0450 22.7057
" />
<path d="M51.0450 22.7057
L50.9736 22.5629
" />
<path d="M50.9736 22.5629
L50.9736 22.4200
" />
<path d="M50.9736 21.7057
L51.0450 21.8486
" />
<path d="M51.0450 21.8486
L51.1164 21.9200
" />
<path d="M51.1164 21.9200
L51.2593 21.9914
" />
<path d="M51.2593 21.9914
L51.6879 21.9914
" />
<path d="M51.6879 21.9914
L51.8307 21.9200
" />
<path d="M51.8307 21.9200
L51.9021 21.8486
" />
<path d="M51.9021 21.8486
L51.9736 21.7057
" />
<path d="M51.9736 21.7057
L51.9736 21.4914
" />
<path d="M51.9736 21.4914
L51.9021 21.3486
" />
<path d="M51.9021 21.3486
L51.8307 21.2771
" />
<path d="M51.8307 21.2771
L51.6879 21.2057
" />
<path d="M51.6879 21.2057
L51.2593 21.2057
" />
<path d="M51.2593 21.2057
L51.1164 21.2771
" />
<path d="M51.1164 21.2771
L51.0450 21.3486
" />
<path d="M51.0450 21.3486
L50.9736 21.4914
" />
<path d="M50.9736 21.4914
L50.9736 21.7057
" />
<path d="M51.7593 18.9200
L51.6879 18.7057
" />
<path d="M51.6879 18.7057
L51.6164 18.6343
" />
<path d="M51.6164 18.6343
L51.4736 18.5629
" />
<path d="M51.4736 18.5629
L51.2593 18.5629
" />
<path d="M51.2593 18.5629
L51.1164 18.6343
" />
<path d="M51.1164 18.6343
L51.0450 18.7057
" />
<path d="M51.0450 18.7057
L50.9736 18.8486
" />
<path d="M50.9736 18.8486
L50.9736 19.4200
" />
<path d="M50.9736 19.4200
L52.4736 19.4200
" />
<path d="M52.4736 19.4200
L52.4736 18.9200
" />
<path d="M52.4736 18.9200
L52.4021 18.7771
" />
<path d="M52.4021 18.7771
L52.3307 18.7057
" />
<path d="M52.3307 18.7057
L52.1879 18.6343
" />
<path d="M52.1879 18.6343
L52.0450 18.6343
" />
<path d="M52.0450 18.6343
L51.9021 18.7057
" />
<path d="M51.9021 18.7057
L51.8307 18.7771
" />
<path d="M51.8307 18.7771
L51.7593 18.9200
" />
<path d="M51.7593 18.9200
L51.7593 19.4200
" />
<path d="M52.4736 18.1343
L52.4736 17.2771
" />
<path d="M50.9736 17.7057
L52.4736 17.7057
" />
<path d="M52.4736 16.9914
L52.4736 16.1343
" />
<path d="M50.9736 16.5629
L52.4736 16.5629
" />
<path d="M51.5450 15.6343
L51.5450 14.4914
" />
<path d="M52.4736 13.9914
L52.4736 13.1343
" />
<path d="M50.9736 13.5629
L52.4736 13.5629
" />
<path d="M51.0450 12.0629
L50.9736 12.2057
" />
<path d="M50.9736 12.2057
L50.9736 12.4914
" />
<path d="M50.9736 12.4914
L51.0450 12.6343
" />
<path d="M51.0450 12.6343
L51.1879 12.7057
" />
<path d="M51.1879 12.7057
L51.7593 12.7057
" />
<path d="M51.7593 12.7057
L51.9021 12.6343
" />
<path d="M51.9021 12.6343
L51.9736 12.4914
" />
<path d="M51.9736 12.4914
L51.9736 12.2057
" />
<path d="M51.9736 12.2057
L51.9021 12.0629
" />
<path d="M51.9021 12.0629
L51.7593 11.9914
" />
<path d="M51.7593 11.9914
L51.6164 11.9914
" />
<path d="M51.6164 11.9914
L51.4736 12.7057
" />
<path d="M51.0450 11.4200
L50.9736 11.2771
" />
<path d="M50.9736 11.2771
L50.9736 10.9914
" />
<path d="M50.9736 10.9914
L51.0450 10.8486
" />
<path d="M51.0450 10.8486
L51.1879 10.7771
" />
<path d="M51.1879 10.7771
L51.2593 10.7771
" />
<path d="M51.2593 10.7771
L51.4021 10.8486
" />
<path d="M51.4021 10.8486
L51.4736 10.9914
" />
<path d="M51.4736 10.9914
L51.4736 11.2057
" />
<path d="M51.4736 11.2057
L51.5450 11.3486
" />
<path d="M51.5450 11.3486
L51.6879 11.4200
" />
<path d="M51.6879 11.4200
L51.7593 11.4200
" />
<path d="M51.7593 11.4200
L51.9021 11.3486
" />
<path d="M51.9021 11.3486
L51.9736 11.2057
" />
<path d="M51.9736 11.2057
L51.9736 10.9914
" />
<path d="M51.9736 10.9914
L51.9021 10.8486
" />
<path d="M51.9736 10.3486
L51.9736 9.7771
" />
<path d="M52.4736 10.1343
L51.1879 10.1343
" />
<path d="M51.1879 10.1343
L51.0450 10.0629
" />
<path d="M51.0450 10.0629
L50.9736 9.9200
" />
<path d="M50.9736 9.9200
L50.9736 9.7771
" />
</g><g transform="rotate(-270.000000 48.3600 20.4200)">
<text x="48.3600" y="20.4200"
transform="scale(-1 1) translate(-96.720000 0)"
textLength="12.9500" font-size="2.0000" lengthAdjust="spacingAndGlyphs"
text-anchor="middle" opacity="0">Board V1.0</text>
</g>
<g class="stroked-text"><desc>Board V1.0</desc>
<path d="M49.3293 25.8129
L49.2579 25.5986
" />
<path d="M49.2579 25.5986
L49.1864 25.5271
" />
<path d="M49.1864 25.5271
L49.0436 25.4557
" />
<path d="M49.0436 25.4557
L48.8293 25.4557
" />
<path d="M48.8293 25.4557
L48.6864 25.5271
" />
<path d="M48.6864 25.5271
L48.6150 25.5986
" />
<path d="M48.6150 25.5986
L48.5436 25.7414
" />
<path d="M48.5436 25.7414
L48.5436 26.3129
" />
<path d="M48.5436 26.3129
L50.0436 26.3129
" />
<path d="M50.0436 26.3129
L50.0436 25.8129
" />
<path d="M50.0436 25.8129
L49.9721 25.6700
" />
<path d="M49.9721 25.6700
L49.9007 25.5986
" />
<path d="M49.9007 25.5986
L49.7579 25.5271
" />
<path d="M49.7579 25.5271
L49.6150 25.5271
" />
<path d="M49.6150 25.5271
L49.4721 25.5986
" />
<path d="M49.4721 25.5986
L49.4007 25.6700
" />
<path d="M49.4007 25.6700
L49.3293 25.8129
" />
<path d="M49.3293 25.8129
L49.3293 26.3129
" />
<path d="M48.5436 24.5986
L48.6150 24.7414
" />
<path d="M48.6150 24.7414
L48.6864 24.8129
" />
<path d="M48.6864 24.8129
L48.8293 24.8843
" />
<path d="M48.8293 24.8843
L49.2579 24.8843
" />
<path d="M49.2579 24.8843
L49.4007 24.8129
" />
<path d="M49.4007 24.8129
L49.4721 24.7414
" />
<path d="M49.4721 24.7414
L49.5436 24.5986
" />
<path d="M49.5436 24.5986
L49.5436 24.3843
" />
<path d="M49.5436 24.3843
L49.4721 24.2414
" />
<path d="M49.4721 24.2414
L49.4007 24.1700
" />
<path d="M49.4007 24.1700
L49.2579 24.0986
" />
<path d="M49.2579 24.0986
L48.8293 24.0986
" />
<path d="M48.8293 24.0986
L48.6864 24.1700
" />
<path d="M48.6864 24.1700
L48.6150 24.2414
" />
<path d="M48.6150 24.2414
L48.5436 24.3843
" />
<path d="M48.5436 24.3843
L48.5436 24.5986
" />
<path d="M48.5436 22.8129
L49.3293 22.8129
" />
<path d="M49.3293 22.8129
L49.4721 22.8843
" />
<path d="M49.4721 22.8843
L49.5436 23.0271
" />
<path d="M49.5436 23.0271
L49.5436 23.3129
" />
<path d="M49.5436 23.3129
L49.4721 23.4557
" />
<path d="M48.6150 22.8129
L48.5436 22.9557
" />
<path d="M48.5436 22.9557
L48.5436 23.3129
" />
<path d="M48.5436 23.3129
L48.6150 23.4557
" />
<path d="M48.6150 23.4557
L48.7579 23.5271
" />
<path d="M48.7579 23.5271
L48.9007 23.5271
" />
<path d="M48.9007 23.5271
L49.0436 23.4557
" />
<path d="M49.0436 23.4557
L49.1150 23.3129
" />
<path d="M49.1150 23.3129
L49.1150 22.9557
" />
<path d="M49.1150 22.9557
L49.1864 22.8129
" />
<path d="M48.5436 22.0986
L49.5436 22.0986
" />
<path d="M49.2579 22.0986
L49.4007 22.0271
" />
<path d="M49.4007 22.0271
L49.4721 21.9557
" />
<path d="M49.4721 21.9557
L49.5436 21.8129
" />
<path d="M49.5436 21.8129
L49.5436 21.6700
" />
<path d="M48.5436 20.5271
L50.0436 20.5271
" />
<path d="M48.6150 20.5271
L48.5436 20.6700
" />
<path d="M48.5436 20.6700
L48.5436 20.9557
" />
<path d="M48.5436 20.9557
L48.6150 21.0986
" />
<path d="M48.6150 21.0986
L48.6864 21.1700
" />
<path d="M48.6864 21.1700
L48.8293 21.2414
" />
<path d="M48.8293 21.2414
L49.2579 21.2414
" />
<path d="M49.2579 21.2414
L49.4007 21.1700
" />
<path d="M49.4007 21.1700
L49.4721 21.0986
" />
<path d="M49.4721 21.0986
L49.5436 20.9557
" />
<path d="M49.5436 20.9557
L49.5436 20.6700
" />
<path d="M49.5436 20.6700
L49.4721 20.5271
" />
<path d="M50.0436 18.8843
L48.5436 18.3843
" />
<path d="M48.5436 18.3843
L50.0436 17.8843
" />
<path d="M48.5436 16.5986
L48.5436 17.4557
" />
<path d="M48.5436 17.0271
L50.0436 17.0271
" />
<path d="M50.0436 17.0271
L49.8293 17.1700
" />
<path d="M49.8293 17.1700
L49.6864 17.3129
" />
<path d="M49.6864 17.3129
L49.6150 17.4557
" />
<path d="M48.6864 15.9557
L48.6150 15.8843
" />
<path d="M48.6150 15.8843
L48.5436 15.9557
" />
<path d="M48.5436 15.9557
L48.6150 16.0271
" />
<path d="M48.6150 16.0271
L48.6864 15.9557
" />
<path d="M48.6864 15.9557
L48.5436 15.9557
" />
<path d="M50.0436 14.9557
L50.0436 14.8129
" />
<path d="M50.0436 14.8129
L49.9721 14.6700
" />
<path d="M49.9721 14.6700
L49.9007 14.5986
" />
<path d="M49.9007 14.5986
L49.7579 14.5271
" />
<path d="M49.7579 14.5271
L49.4721 14.4557
" />
<path d="M49.4721 14.4557
L49.1150 14.4557
" />
<path d="M49.1150 14.4557
L48.8293 14.5271
" />
<path d="M48.8293 14.5271
L48.6864 14.5986
" />
<path d="M48.6864 14.5986
L48.6150 14.6700
" />
<path d="M48.6150 14.6700
L48.5436 14.8129
" />
<path d="M48.5436 14.8129
L48.5436 14.9557
" />
<path d="M48.5436 14.9557
L48.6150 15.0986
" />
<path d="M48.6150 15.0986
L48.6864 15.1700
" />
<path d="M48.6864 15.1700
L48.8293 15.2414
" />
<path d="M48.8293 15.2414
L49.1150 15.3129
" />
<path d="M49.1150 15.3129
L49.4721 15.3129
" />
<path d="M49.4721 15.3129
L49.7579 15.2414
" />
<path d="M49.7579 15.2414
L49.9007 15.1700
" />
<path d="M49.9007 15.1700
L49.9721 15.0986
" />
<path d="M49.9721 15.0986
L50.0436 14.9557
" />
</g></g>
<g style="fill:#4D7FC4; fill-opacity:0.0; 
stroke:#4D7FC4; stroke-width:0.1500; stroke-opacity:1; 
stroke-linecap:round; stroke-linejoin:round;">
<g transform="rotate(-90.000000 31.3420 9.1170)">
<text x="31.3420" y="9.6170"
textLength="4.5083" font-size="1.3333" lengthAdjust="spacingAndGlyphs"
text-anchor="middle" opacity="0">LED_Y</text>
</g>
<g class="stroked-text"><desc>LED_Y</desc>
<path d="M31.8046 10.5694
L31.8046 11.0456
" />
<path d="M31.8046 11.0456
L30.8046 11.0456
" />
<path d="M31.2808 10.2360
L31.2808 9.9027
" />
<path d="M31.8046 9.7599
L31.8046 10.2360
" />
<path d="M31.8046 10.2360
L30.8046 10.2360
" />
<path d="M30.8046 10.2360
L30.8046 9.7599
" />
<path d="M31.8046 9.3313
L30.8046 9.3313
" />
<path d="M30.8046 9.3313
L30.8046 9.0932
" />
<path d="M30.8046 9.0932
L30.8522 8.9503
" />
<path d="M30.8522 8.9503
L30.9475 8.8551
" />
<path d="M30.9475 8.8551
L31.0427 8.8075
" />
<path d="M31.0427 8.8075
L31.2332 8.7599
" />
<path d="M31.2332 8.7599
L31.3760 8.7599
" />
<path d="M31.3760 8.7599
L31.5665 8.8075
" />
<path d="M31.5665 8.8075
L31.6618 8.8551
" />
<path d="M31.6618 8.8551
L31.7570 8.9503
" />
<path d="M31.7570 8.9503
L31.8046 9.0932
" />
<path d="M31.8046 9.0932
L31.8046 9.3313
" />
<path d="M31.8999 8.5694
L31.8999 7.8075
" />
<path d="M31.3284 7.3789
L31.8046 7.3789
" />
<path d="M30.8046 7.7122
L31.3284 7.3789
" />
<path d="M31.3284 7.3789
L30.8046 7.0456
" />
</g><g transform="rotate(-90.000000 13.3080 19.2770)">
<text x="13.3080" y="19.7770"
textLength="3.0321" font-size="1.3333" lengthAdjust="spacingAndGlyphs"
text-anchor="middle" opacity="0">100</text>
</g>
<g class="stroked-text"><desc>100</desc>
<path d="M13.7706 19.9437
L13.7706 20.5151
" />
<path d="M13.7706 20.2294
L12.7706 20.2294
" />
<path d="M12.7706 20.2294
L12.9135 20.3246
" />
<path d="M12.9135 20.3246
L13.0087 20.4199
" />
<path d="M13.0087 20.4199
L13.0563 20.5151
" />
<path d="M12.7706 19.3246
L12.7706 19.2294
" />
<path d="M12.7706 19.2294
L12.8182 19.1341
" />
<path d="M12.8182 19.1341
L12.8659 19.0865
" />
<path d="M12.8659 19.0865
L12.9611 19.0389
" />
<path d="M12.9611 19.0389
L13.1516 18.9913
" />
<path d="M13.1516 18.9913
L13.3897 18.9913
" />
<path d="M13.3897 18.9913
L13.5801 19.0389
" />
<path d="M13.5801 19.0389
L13.6754 19.0865
" />
<path d="M13.6754 19.0865
L13.7230 19.1341
" />
<path d="M13.7230 19.1341
L13.7706 19.2294
" />
<path d="M13.7706 19.2294
L13.7706 19.3246
" />
<path d="M13.7706 19.3246
L13.7230 19.4199
" />
<path d="M13.7230 19.4199
L13.6754 19.4675
" />
<path d="M13.6754 19.4675
L13.5801 19.5151
" />
<path d="M13.5801 19.5151
L13.3897 19.5627
" />
<path d="M13.3897 19.5627
L13.1516 19.5627
" />
<path d="M13.1516 19.5627
L12.9611 19.5151
" />
<path d="M12.9611 19.5151
L12.8659 19.4675
" />
<path d="M12.8659 19.4675
L12.8182 19.4199
" />
<path d="M12.8182 19.4199
L12.7706 19.3246
" />
<path d="M12.7706 18.3722
L12.7706 18.2770
" />
<path d="M12.7706 18.2770
L12.8182 18.1818
" />
<path d="M12.8182 18.1818
L12.8659 18.1341
" />
<path d="M12.8659 18.1341
L12.9611 18.0865
" />
<path d="M12.9611 18.0865
L13.1516 18.0389
" />
<path d="M13.1516 18.0389
L13.3897 18.0389
" />
<path d="M13.3897 18.0389
L13.5801 18.0865
" />
<path d="M13.5801 18.0865
L13.6754 18.1341
" />
<path d="M13.6754 18.1341
L13.7230 18.1818
" />
<path d="M13.7230 18.1818
L13.7706 18.2770
" />
<path d="M13.7706 18.2770
L13.7706 18.3722
" />
<path d="M13.7706 18.3722
L13.7230 18.4675
" />
<path d="M13.7230 18.4675
L13.6754 18.5151
" />
<path d="M13.6754 18.5151
L13.5801 18.5627
" />
<path d="M13.5801 18.5627
L13.3897 18.6103
" />
<path d="M13.3897 18.6103
L13.1516 18.6103
" />
<path d="M13.1516 18.6103
L12.9611 18.5627
" />
<path d="M12.9611 18.5627
L12.8659 18.5151
" />
<path d="M12.8659 18.5151
L12.8182 18.4675
" />
<path d="M12.8182 18.4675
L12.7706 18.3722
" />
</g><g transform="rotate(-90.000000 38.7080 19.2770)">
<text x="38.7080" y="19.7770"
textLength="3.0321" font-size="1.3333" lengthAdjust="spacingAndGlyphs"
text-anchor="middle" opacity="0">330</text>
</g>
<g class="stroked-text"><desc>330</desc>
<path d="M38.1706 20.5627
L38.1706 19.9437
" />
<path d="M38.1706 19.9437
L38.5516 20.2770
" />
<path d="M38.5516 20.2770
L38.5516 20.1341
" />
<path d="M38.5516 20.1341
L38.5992 20.0389
" />
<path d="M38.5992 20.0389
L38.6468 19.9913
" />
<path d="M38.6468 19.9913
L38.7420 19.9437
" />
<path d="M38.7420 19.9437
L38.9801 19.9437
" />
<path d="M38.9801 19.9437
L39.0754 19.9913
" />
<path d="M39.0754 19.9913
L39.1230 20.0389
" />
<path d="M39.1230 20.0389
L39.1706 20.1341
" />
<path d="M39.1706 20.1341
L39.1706 20.4199
" />
<path d="M39.1706 20.4199
L39.1230 20.5151
" />
<path d="M39.1230 20.5151
L39.0754 20.5627
" />
<path d="M38.1706 19.6103
L38.1706 18.9913
" />
<path d="M38.1706 18.9913
L38.5516 19.3246
" />
<path d="M38.5516 19.3246
L38.5516 19.1818
" />
<path d="M38.5516 19.1818
L38.5992 19.0865
" />
<path d="M38.5992 19.0865
L38.6468 19.0389
" />
<path d="M38.6468 19.0389
L38.7420 18.9913
" />
<path d="M38.7420 18.9913
L38.9801 18.9913
" />
<path d="M38.9801 18.9913
L39.0754 19.0389
" />
<path d="M39.0754 19.0389
L39.1230 19.0865
" />
<path d="M39.1230 19.0865
L39.1706 19.1818
" />
<path d="M39.1706 19.1818
L39.1706 19.4675
" />
<path d="M39.1706 19.4675
L39.1230 19.5627
" />
<path d="M39.1230 19.5627
L39.0754 19.6103
" />
<path d="M38.1706 18.3722
L38.1706 18.2770
" />
<path d="M38.1706 18.2770
L38.2182 18.1818
" />
<path d="M38.2182 18.1818
L38.2659 18.1341
" />
<path d="M38.2659 18.1341
L38.3611 18.0865
" />
<path d="M38.3611 18.0865
L38.5516 18.0389
" />
<path d="M38.5516 18.0389
L38.7897 18.0389
" />
<path d="M38.7897 18.0389
L38.9801 18.0865
" />
<path d="M38.9801 18.0865
L39.0754 18.1341
" />
<path d="M39.0754 18.1341
L39.1230 18.1818
" />
<path d="M39.1230 18.1818
L39.1706 18.2770
" />
<path d="M39.1706 18.2770
L39.1706 18.3722
" />
<path d="M39.1706 18.3722
L39.1230 18.4675
" />
<path d="M39.1230 18.4675
L39.0754 18.5151
" />
<path d="M39.0754 18.5151
L38.9801 18.5627
" />
<path d="M38.9801 18.5627
L38.7897 18.6103
" />
<path d="M38.7897 18.6103
L38.5516 18.6103
" />
<path d="M38.5516 18.6103
L38.3611 18.5627
" />
<path d="M38.3611 18.5627
L38.2659 18.5151
" />
<path d="M38.2659 18.5151
L38.2182 18.4675
" />
<path d="M38.2182 18.4675
L38.1706 18.3722
" />
</g><g transform="rotate(-90.000000 11.1490 19.0230)">
<text x="11.1490" y="19.5230"
textLength="3.1274" font-size="1.3333" lengthAdjust="spacingAndGlyphs"
text-anchor="middle" opacity="0">batt</text>
</g>
<g class="stroked-text"><desc>batt</desc>
<path d="M11.6116 20.2611
L10.6116 20.2611
" />
<path d="M10.9926 20.2611
L10.9450 20.1659
" />
<path d="M10.9450 20.1659
L10.9450 19.9754
" />
<path d="M10.9450 19.9754
L10.9926 19.8801
" />
<path d="M10.9926 19.8801
L11.0402 19.8325
" />
<path d="M11.0402 19.8325
L11.1354 19.7849
" />
<path d="M11.1354 19.7849
L11.4211 19.7849
" />
<path d="M11.4211 19.7849
L11.5164 19.8325
" />
<path d="M11.5164 19.8325
L11.5640 19.8801
" />
<path d="M11.5640 19.8801
L11.6116 19.9754
" />
<path d="M11.6116 19.9754
L11.6116 20.1659
" />
<path d="M11.6116 20.1659
L11.5640 20.2611
" />
<path d="M11.6116 18.9278
L11.0878 18.9278
" />
<path d="M11.0878 18.9278
L10.9926 18.9754
" />
<path d="M10.9926 18.9754
L10.9450 19.0706
" />
<path d="M10.9450 19.0706
L10.9450 19.2611
" />
<path d="M10.9450 19.2611
L10.9926 19.3563
" />
<path d="M11.5640 18.9278
L11.6116 19.0230
" />
<path d="M11.6116 19.0230
L11.6116 19.2611
" />
<path d="M11.6116 19.2611
L11.5640 19.3563
" />
<path d="M11.5640 19.3563
L11.4688 19.4040
" />
<path d="M11.4688 19.4040
L11.3735 19.4040
" />
<path d="M11.3735 19.4040
L11.2783 19.3563
" />
<path d="M11.2783 19.3563
L11.2307 19.2611
" />
<path d="M11.2307 19.2611
L11.2307 19.0230
" />
<path d="M11.2307 19.0230
L11.1830 18.9278
" />
<path d="M10.9450 18.5944
L10.9450 18.2135
" />
<path d="M10.6116 18.4516
L11.4688 18.4516
" />
<path d="M11.4688 18.4516
L11.5640 18.4040
" />
<path d="M11.5640 18.4040
L11.6116 18.3087
" />
<path d="M11.6116 18.3087
L11.6116 18.2135
" />
<path d="M10.9450 18.0230
L10.9450 17.6420
" />
<path d="M10.6116 17.8801
L11.4688 17.8801
" />
<path d="M11.4688 17.8801
L11.5640 17.8325
" />
<path d="M11.5640 17.8325
L11.6116 17.7373
" />
<path d="M11.6116 17.7373
L11.6116 17.6420
" />
</g><g transform="rotate(-90.000000 18.6420 9.1170)">
<text x="18.6420" y="9.6170"
textLength="4.6512" font-size="1.3333" lengthAdjust="spacingAndGlyphs"
text-anchor="middle" opacity="0">LED_R</text>
</g>
<g class="stroked-text"><desc>LED_R</desc>
<path d="M19.1046 10.6408
L19.1046 11.1170
" />
<path d="M19.1046 11.1170
L18.1046 11.1170
" />
<path d="M18.5808 10.3075
L18.5808 9.9741
" />
<path d="M19.1046 9.8313
L19.1046 10.3075
" />
<path d="M19.1046 10.3075
L18.1046 10.3075
" />
<path d="M18.1046 10.3075
L18.1046 9.8313
" />
<path d="M19.1046 9.4027
L18.1046 9.4027
" />
<path d="M18.1046 9.4027
L18.1046 9.1646
" />
<path d="M18.1046 9.1646
L18.1522 9.0218
" />
<path d="M18.1522 9.0218
L18.2475 8.9265
" />
<path d="M18.2475 8.9265
L18.3427 8.8789
" />
<path d="M18.3427 8.8789
L18.5332 8.8313
" />
<path d="M18.5332 8.8313
L18.6760 8.8313
" />
<path d="M18.6760 8.8313
L18.8665 8.8789
" />
<path d="M18.8665 8.8789
L18.9618 8.9265
" />
<path d="M18.9618 8.9265
L19.0570 9.0218
" />
<path d="M19.0570 9.0218
L19.1046 9.1646
" />
<path d="M19.1046 9.1646
L19.1046 9.4027
" />
<path d="M19.1999 8.6408
L19.1999 7.8789
" />
<path d="M19.1046 7.0694
L18.6284 7.4027
" />
<path d="M19.1046 7.6408
L18.1046 7.6408
" />
<path d="M18.1046 7.6408
L18.1046 7.2599
" />
<path d="M18.1046 7.2599
L18.1522 7.1646
" />
<path d="M18.1522 7.1646
L18.1999 7.1170
" />
<path d="M18.1999 7.1170
L18.2951 7.0694
" />
<path d="M18.2951 7.0694
L18.4380 7.0694
" />
<path d="M18.4380 7.0694
L18.5332 7.1170
" />
<path d="M18.5332 7.1170
L18.5808 7.1646
" />
<path d="M18.5808 7.1646
L18.6284 7.2599
" />
<path d="M18.6284 7.2599
L18.6284 7.6408
" />
</g><g transform="rotate(-90.000000 44.0420 9.1170)">
<text x="44.0420" y="9.6170"
textLength="4.6512" font-size="1.3333" lengthAdjust="spacingAndGlyphs"
text-anchor="middle" opacity="0">LED_G</text>
</g>
<g class="stroked-text"><desc>LED_G</desc>
<path d="M44.5046 10.6408
L44.5046 11.1170
" />
<path d="M44.5046 11.1170
L43.5046 11.1170
" />
<path d="M43.9808 10.3075
L43.9808 9.9741
" />
<path d="M44.5046 9.8313
L44.5046 10.3075
" />
<path d="M44.5046 10.3075
L43.5046 10.3075
" />
<path d="M43.5046 10.3075
L43.5046 9.8313
" />
<path d="M44.5046 9.4027
L43.5046 9.4027
" />
<path d="M43.5046 9.4027
L43.5046 9.1646
" />
<path d="M43.5046 9.1646
L43.5522 9.0218
" />
<path d="M43.5522 9.0218
L43.6475 8.9265
" />
<path d="M43.6475 8.9265
L43.7427 8.8789
" />
<path d="M43.7427 8.8789
L43.9332 8.8313
" />
<path d="M43.9332 8.8313
L44.0760 8.8313
" />
<path d="M44.0760 8.8313
L44.2665 8.8789
" />
<path d="M44.2665 8.8789
L44.3618 8.9265
" />
<path d="M44.3618 8.9265
L44.4570 9.0218
" />
<path d="M44.4570 9.0218
L44.5046 9.1646
" />
<path d="M44.5046 9.1646
L44.5046 9.4027
" />
<path d="M44.5999 8.6408
L44.5999 7.8789
" />
<path d="M43.5522 7.1170
L43.5046 7.2122
" />
<path d="M43.5046 7.2122
L43.5046 7.3551
" />
<path d="M43.5046 7.3551
L43.5522 7.4980
" />
<path d="M43.5522 7.4980
L43.6475 7.5932
" />
<path d="M43.6475 7.5932
L43.7427 7.6408
" />
<path d="M43.7427 7.6408
L43.9332 7.6884
" />
<path d="M43.9332 7.6884
L44.0760 7.6884
" />
<path d="M44.0760 7.6884
L44.2665 7.6408
" />
<path d="M44.2665 7.6408
L44.3618 7.5932
" />
<path d="M44.3618 7.5932
L44.4570 7.4980
" />
<path d="M44.4570 7.4980
L44.5046 7.3551
" />
<path d="M44.5046 7.3551
L44.5046 7.2599
" />
<path d="M44.5046 7.2599
L44.4570 7.1170
" />
<path d="M44.4570 7.1170
L44.4094 7.0694
" />
<path d="M44.4094 7.0694
L44.0760 7.0694
" />
<path d="M44.0760 7.0694
L44.0760 7.2599
" />
</g><g transform="rotate(-90.000000 26.0080 19.2770)">
<text x="26.0080" y="19.7770"
textLength="3.0321" font-size="1.3333" lengthAdjust="spacingAndGlyphs"
text-anchor="middle" opacity="0">220</text>
</g>
<g class="stroked-text"><desc>220</desc>
<path d="M25.5659 20.5151
L25.5182 20.4675
" />
<path d="M25.5182 20.4675
L25.4706 20.3722
" />
<path d="M25.4706 20.3722
L25.4706 20.1341
" />
<path d="M25.4706 20.1341
L25.5182 20.0389
" />
<path d="M25.5182 20.0389
L25.5659 19.9913
" />
<path d="M25.5659 19.9913
L25.6611 19.9437
" />
<path d="M25.6611 19.9437
L25.7563 19.9437
" />
<path d="M25.7563 19.9437
L25.8992 19.9913
" />
<path d="M25.8992 19.9913
L26.4706 20.5627
" />
<path d="M26.4706 20.5627
L26.4706 19.9437
" />
<path d="M25.5659 19.5627
L25.5182 19.5151
" />
<path d="M25.5182 19.5151
L25.4706 19.4199
" />
<path d="M25.4706 19.4199
L25.4706 19.1818
" />
<path d="M25.4706 19.1818
L25.5182 19.0865
" />
<path d="M25.5182 19.0865
L25.5659 19.0389
" />
<path d="M25.5659 19.0389
L25.6611 18.9913
" />
<path d="M25.6611 18.9913
L25.7563 18.9913
" />
<path d="M25.7563 18.9913
L25.8992 19.0389
" />
<path d="M25.8992 19.0389
L26.4706 19.6103
" />
<path d="M26.4706 19.6103
L26.4706 18.9913
" />
<path d="M25.4706 18.3722
L25.4706 18.2770
" />
<path d="M25.4706 18.2770
L25.5182 18.1818
" />
<path d="M25.5182 18.1818
L25.5659 18.1341
" />
<path d="M25.5659 18.1341
L25.6611 18.0865
" />
<path d="M25.6611 18.0865
L25.8516 18.0389
" />
<path d="M25.8516 18.0389
L26.0897 18.0389
" />
<path d="M26.0897 18.0389
L26.2801 18.0865
" />
<path d="M26.2801 18.0865
L26.3754 18.1341
" />
<path d="M26.3754 18.1341
L26.4230 18.1818
" />
<path d="M26.4230 18.1818
L26.4706 18.2770
" />
<path d="M26.4706 18.2770
L26.4706 18.3722
" />
<path d="M26.4706 18.3722
L26.4230 18.4675
" />
<path d="M26.4230 18.4675
L26.3754 18.5151
" />
<path d="M26.3754 18.5151
L26.2801 18.5627
" />
<path d="M26.2801 18.5627
L26.0897 18.6103
" />
<path d="M26.0897 18.6103
L25.8516 18.6103
" />
<path d="M25.8516 18.6103
L25.6611 18.5627
" />
<path d="M25.6611 18.5627
L25.5659 18.5151
" />
<path d="M25.5659 18.5151
L25.5182 18.4675
" />
<path d="M25.5182 18.4675
L25.4706 18.3722
" />
</g><g transform="rotate(-90.000000 30.0720 30.4530)">
<text x="30.0720" y="30.9530"
textLength="2.5560" font-size="1.3333" lengthAdjust="spacingAndGlyphs"
text-anchor="middle" opacity="0">9.1</text>
</g>
<g class="stroked-text"><desc>9.1</desc>
<path d="M30.5346 31.3578
L30.5346 31.1673
" />
<path d="M30.5346 31.1673
L30.4870 31.0720
" />
<path d="M30.4870 31.0720
L30.4394 31.0244
" />
<path d="M30.4394 31.0244
L30.2965 30.9292
" />
<path d="M30.2965 30.9292
L30.1060 30.8816
" />
<path d="M30.1060 30.8816
L29.7251 30.8816
" />
<path d="M29.7251 30.8816
L29.6299 30.9292
" />
<path d="M29.6299 30.9292
L29.5822 30.9768
" />
<path d="M29.5822 30.9768
L29.5346 31.0720
" />
<path d="M29.5346 31.0720
L29.5346 31.2625
" />
<path d="M29.5346 31.2625
L29.5822 31.3578
" />
<path d="M29.5822 31.3578
L29.6299 31.4054
" />
<path d="M29.6299 31.4054
L29.7251 31.4530
" />
<path d="M29.7251 31.4530
L29.9632 31.4530
" />
<path d="M29.9632 31.4530
L30.0584 31.4054
" />
<path d="M30.0584 31.4054
L30.1060 31.3578
" />
<path d="M30.1060 31.3578
L30.1537 31.2625
" />
<path d="M30.1537 31.2625
L30.1537 31.0720
" />
<path d="M30.1537 31.0720
L30.1060 30.9768
" />
<path d="M30.1060 30.9768
L30.0584 30.9292
" />
<path d="M30.0584 30.9292
L29.9632 30.8816
" />
<path d="M30.4394 30.4530
L30.4870 30.4054
" />
<path d="M30.4870 30.4054
L30.5346 30.4530
" />
<path d="M30.5346 30.4530
L30.4870 30.5006
" />
<path d="M30.4870 30.5006
L30.4394 30.4530
" />
<path d="M30.4394 30.4530
L30.5346 30.4530
" />
<path d="M30.5346 29.4530
L30.5346 30.0244
" />
<path d="M30.5346 29.7387
L29.5346 29.7387
" />
<path d="M29.5346 29.7387
L29.6775 29.8340
" />
<path d="M29.6775 29.8340
L29.7727 29.9292
" />
<path d="M29.7727 29.9292
L29.8203 30.0244
" />
</g><g transform="rotate(-90.000000 42.7720 30.4530)">
<text x="42.7720" y="30.9530"
textLength="2.0798" font-size="1.3333" lengthAdjust="spacingAndGlyphs"
text-anchor="middle" opacity="0">10</text>
</g>
<g class="stroked-text"><desc>10</desc>
<path d="M43.2346 30.6435
L43.2346 31.2149
" />
<path d="M43.2346 30.9292
L42.2346 30.9292
" />
<path d="M42.2346 30.9292
L42.3775 31.0244
" />
<path d="M42.3775 31.0244
L42.4727 31.1197
" />
<path d="M42.4727 31.1197
L42.5203 31.2149
" />
<path d="M42.2346 30.0244
L42.2346 29.9292
" />
<path d="M42.2346 29.9292
L42.2822 29.8340
" />
<path d="M42.2822 29.8340
L42.3299 29.7863
" />
<path d="M42.3299 29.7863
L42.4251 29.7387
" />
<path d="M42.4251 29.7387
L42.6156 29.6911
" />
<path d="M42.6156 29.6911
L42.8537 29.6911
" />
<path d="M42.8537 29.6911
L43.0441 29.7387
" />
<path d="M43.0441 29.7387
L43.1394 29.7863
" />
<path d="M43.1394 29.7863
L43.1870 29.8340
" />
<path d="M43.1870 29.8340
L43.2346 29.9292
" />
<path d="M43.2346 29.9292
L43.2346 30.0244
" />
<path d="M43.2346 30.0244
L43.1870 30.1197
" />
<path d="M43.1870 30.1197
L43.1394 30.1673
" />
<path d="M43.1394 30.1673
L43.0441 30.2149
" />
<path d="M43.0441 30.2149
L42.8537 30.2625
" />
<path d="M42.8537 30.2625
L42.6156 30.2625
" />
<path d="M42.6156 30.2625
L42.4251 30.2149
" />
<path d="M42.4251 30.2149
L42.3299 30.1673
" />
<path d="M42.3299 30.1673
L42.2822 30.1197
" />
<path d="M42.2822 30.1197
L42.2346 30.0244
" />
</g><g transform="rotate(-90.000000 17.3720 30.4530)">
<text x="17.3720" y="30.9530"
textLength="2.5560" font-size="1.3333" lengthAdjust="spacingAndGlyphs"
text-anchor="middle" opacity="0">7.5</text>
</g>
<g class="stroked-text"><desc>7.5</desc>
<path d="M16.8346 31.5006
L16.8346 30.8340
" />
<path d="M16.8346 30.8340
L17.8346 31.2625
" />
<path d="M17.7394 30.4530
L17.7870 30.4054
" />
<path d="M17.7870 30.4054
L17.8346 30.4530
" />
<path d="M17.8346 30.4530
L17.7870 30.5006
" />
<path d="M17.7870 30.5006
L17.7394 30.4530
" />
<path d="M17.7394 30.4530
L17.8346 30.4530
" />
<path d="M16.8346 29.5006
L16.8346 29.9768
" />
<path d="M16.8346 29.9768
L17.3108 30.0244
" />
<path d="M17.3108 30.0244
L17.2632 29.9768
" />
<path d="M17.2632 29.9768
L17.2156 29.8816
" />
<path d="M17.2156 29.8816
L17.2156 29.6435
" />
<path d="M17.2156 29.6435
L17.2632 29.5482
" />
<path d="M17.2632 29.5482
L17.3108 29.5006
" />
<path d="M17.3108 29.5006
L17.4060 29.4530
" />
<path d="M17.4060 29.4530
L17.6441 29.4530
" />
<path d="M17.6441 29.4530
L17.7394 29.5006
" />
<path d="M17.7394 29.5006
L17.7870 29.5482
" />
<path d="M17.7870 29.5482
L17.8346 29.6435
" />
<path d="M17.8346 29.6435
L17.8346 29.8816
" />
<path d="M17.8346 29.8816
L17.7870 29.9768
" />
<path d="M17.7870 29.9768
L17.7394 30.0244
" />
</g></g>
<g style="fill:#4D7FC4; fill-opacity:0.0; 
stroke:#4D7FC4; stroke-width:0.2000; stroke-opacity:1; 
stroke-linecap:round; stroke-linejoin:round;">
<path d="M29.0560 29.5640
L27.0240 29.5640
" />
<path d="M29.0560 29.5640
L29.0560 30.0720
" />
<path d="M28.0400 29.5640
L28.0400 28.9290
" />
<path d="M28.0400 29.6170
L29.0560 31.0880
" />
<path d="M29.0560 31.0880
L27.0240 31.0880
" />
<path d="M28.0400 31.0880
L28.0400 32.1040
" />
<path d="M27.0240 31.0880
L28.0400 29.6170
" />
<path d="M41.7560 29.5640
L39.7240 29.5640
" />
<path d="M41.7560 29.5640
L41.7560 30.0720
" />
<path d="M40.7400 29.5640
L40.7400 28.9290
" />
<path d="M40.7400 29.6170
L41.7560 31.0880
" />
<path d="M41.7560 31.0880
L39.7240 31.0880
" />
<path d="M40.7400 31.0880
L40.7400 32.1040
" />
<path d="M39.7240 31.0880
L40.7400 29.6170
" />
<path d="M16.3560 29.5640
L14.3240 29.5640
" />
<path d="M16.3560 29.5640
L16.3560 30.0720
" />
<path d="M15.3400 29.5640
L15.3400 28.9290
" />
<path d="M15.3400 29.6170
L16.3560 31.0880
" />
<path d="M16.3560 31.0880
L14.3240 31.0880
" />
<path d="M15.3400 31.0880
L15.3400 32.1040
" />
<path d="M14.3240 31.0880
L15.3400 29.6170
" />
<g >
</g>
<g style="fill:#4D7FC4; fill-opacity:0.0; 
stroke:#4D7FC4; stroke-width:0.0000; stroke-opacity:1; 
stroke-linecap:round; stroke-linejoin:round;">
</g>
<g style="fill:#4D7FC4; fill-opacity:1.0000; 
stroke:#4D7FC4; stroke-width:0.0000; stroke-opacity:1; 
stroke-linecap:round; stroke-linejoin:round;">
<path style="fill:#4D7FC4; fill-opacity:1.0000; 
stroke:#4D7FC4; stroke-width:0.0000; stroke-opacity:1; 
stroke-linecap:round; stroke-linejoin:round;fill-rule:evenodd;"
d="M 29.3100,9.2440
29.3100,11.2760
26.7700,11.2760
26.7700,9.2440
Z" /> 
<circle cx="28.0400" cy="7.7200" r="1.1430" /> 
</g>
<g style="fill:#4D7FC4; fill-opacity:1.0000; 
stroke:#4D7FC4; stroke-width:0.0212; stroke-opacity:1; 
stroke-linecap:round; stroke-linejoin:round;">
</g>
<g >
</g>
<g style="fill:#4D7FC4; fill-opacity:1.0000; 
stroke:#4D7FC4; stroke-width:0.0212; stroke-opacity:1; 
stroke-linecap:round; stroke-linejoin:round;">
</g>
<g style="fill:#4D7FC4; fill-opacity:1.0000; 
stroke:#4D7FC4; stroke-width:0.0000; stroke-opacity:1; 
stroke-linecap:round; stroke-linejoin:round;">
<circle cx="15.3400" cy="15.3400" r="1.0000" /> 
</g>
<g style="fill:#4D7FC4; fill-opacity:1.0000; 
stroke:#4D7FC4; stroke-width:0.0212; stroke-opacity:1; 
stroke-linecap:round; stroke-linejoin:round;">
</g>
<g style="fill:#4D7FC4; fill-opacity:1.0000; 
stroke:#4D7FC4; stroke-width:0.0000; stroke-opacity:1; 
stroke-linecap:round; stroke-linejoin:round;">
<circle cx="15.3400" cy="22.9600" r="1.0000" /> 
</g>
<g style="fill:#4D7FC4; fill-opacity:1.0000; 
stroke:#4D7FC4; stroke-width:0.0212; stroke-opacity:1; 
stroke-linecap:round; stroke-linejoin:round;">
</g>
<g >
</g>
<g style="fill:#4D7FC4; fill-opacity:1.0000; 
stroke:#4D7FC4; stroke-width:0.0212; stroke-opacity:1; 
stroke-linecap:round; stroke-linejoin:round;">
</g>
<g style="fill:#4D7FC4; fill-opacity:1.0000; 
stroke:#4D7FC4; stroke-width:0.0000; stroke-opacity:1; 
stroke-linecap:round; stroke-linejoin:round;">
<circle cx="40.7400" cy="15.3400" r="1.0000" /> 
</g>
<g style="fill:#4D7FC4; fill-opacity:1.0000; 
stroke:#4D7FC4; stroke-width:0.0212; stroke-opacity:1; 
stroke-linecap:round; stroke-linejoin:round;">
</g>
<g style="fill:#4D7FC4; fill-opacity:1.0000; 
stroke:#4D7FC4; stroke-width:0.0000; stroke-opacity:1; 
stroke-linecap:round; stroke-linejoin:round;">
<circle cx="40.7400" cy="22.9600" r="1.0000" /> 
</g>
<g style="fill:#4D7FC4; fill-opacity:1.0000; 
stroke:#4D7FC4; stroke-width:0.0212; stroke-opacity:1; 
stroke-linecap:round; stroke-linejoin:round;">
</g>
<g >
</g>
<g style="fill:#4D7FC4; fill-opacity:1.0000; 
stroke:#4D7FC4; stroke-width:0.0212; stroke-opacity:1; 
stroke-linecap:round; stroke-linejoin:round;">
</g>
<g style="fill:#4D7FC4; fill-opacity:1.0000; 
stroke:#4D7FC4; stroke-width:0.0000; stroke-opacity:1; 
stroke-linecap:round; stroke-linejoin:round;">
<path style="fill:#4D7FC4; fill-opacity:1.0000; 
stroke:#4D7FC4; stroke-width:0.0000; stroke-opacity:1; 
stroke-linecap:round; stroke-linejoin:round;fill-rule:evenodd;"
d="M 8.9900,23.9760
6.4500,23.9760
6.4500,21.9440
8.9900,21.9440
Z" /> 
<circle cx="7.7200" cy="20.4200" r="1.0160" /> 
</g>
<g style="fill:#4D7FC4; fill-opacity:1.0000; 
stroke:#4D7FC4; stroke-width:0.0212; stroke-opacity:1; 
stroke-linecap:round; stroke-linejoin:round;">
</g>
<g style="fill:#4D7FC4; fill-opacity:1.0000; 
stroke:#4D7FC4; stroke-width:0.0000; stroke-opacity:1; 
stroke-linecap:round; stroke-linejoin:round;">
<circle cx="7.7200" cy="17.8800" r="1.0160" /> 
</g>
<g style="fill:#4D7FC4; fill-opacity:1.0000; 
stroke:#4D7FC4; stroke-width:0.0212; stroke-opacity:1; 
stroke-linecap:round; stroke-linejoin:round;">
</g>
<g style="fill:#4D7FC4; fill-opacity:1.0000; 
stroke:#4D7FC4; stroke-width:0.0000; stroke-opacity:1; 
stroke-linecap:round; stroke-linejoin:round;">
<circle cx="7.7200" cy="15.3400" r="1.0160" /> 
</g>
<g style="fill:#4D7FC4; fill-opacity:1.0000; 
stroke:#4D7FC4; stroke-width:0.0212; stroke-opacity:1; 
stroke-linecap:round; stroke-linejoin:round;">
</g>
<g >
</g>
<g style="fill:#4D7FC4; fill-opacity:1.0000; 
stroke:#4D7FC4; stroke-width:0.0212; stroke-opacity:1; 
stroke-linecap:round; stroke-linejoin:round;">
</g>
<g style="fill:#4D7FC4; fill-opacity:1.0000; 
stroke:#4D7FC4; stroke-width:0.0000; stroke-opacity:1; 
stroke-linecap:round; stroke-linejoin:round;">
<path style="fill:#4D7FC4; fill-opacity:1.0000; 
stroke:#4D7FC4; stroke-width:0.0000; stroke-opacity:1; 
stroke-linecap:round; stroke-linejoin:round;fill-rule:evenodd;"
d="M 16.6100,9.2440
16.6100,11.2760
14.0700,11.2760
14.0700,9.2440
Z" /> 
<circle cx="15.3400" cy="7.7200" r="1.1430" /> 
</g>
<g style="fill:#4D7FC4; fill-opacity:1.0000; 
stroke:#4D7FC4; stroke-width:0.0212; stroke-opacity:1; 
stroke-linecap:round; stroke-linejoin:round;">
</g>
<g >
</g>
<g style="fill:#4D7FC4; fill-opacity:1.0000; 
stroke:#4D7FC4; stroke-width:0.0212; stroke-opacity:1; 
stroke-linecap:round; stroke-linejoin:round;">
</g>
<g style="fill:#4D7FC4; fill-opacity:1.0000; 
stroke:#4D7FC4; stroke-width:0.0000; stroke-opacity:1; 
stroke-linecap:round; stroke-linejoin:round;">
<path style="fill:#4D7FC4; fill-opacity:1.0000; 
stroke:#4D7FC4; stroke-width:0.0000; stroke-opacity:1; 
stroke-linecap:round; stroke-linejoin:round;fill-rule:evenodd;"
d="M 42.0100,9.2440
42.0100,11.2760
39.4700,11.2760
39.4700,9.2440
Z" /> 
<circle cx="40.7400" cy="7.7200" r="1.1430" /> 
</g>
<g style="fill:#4D7FC4; fill-opacity:1.0000; 
stroke:#4D7FC4; stroke-width:0.0212; stroke-opacity:1; 
stroke-linecap:round; stroke-linejoin:round;">
</g>
<g >
</g>
<g style="fill:#4D7FC4; fill-opacity:1.0000; 
stroke:#4D7FC4; stroke-width:0.0212; stroke-opacity:1; 
stroke-linecap:round; stroke-linejoin:round;">
</g>
<g style="fill:#4D7FC4; fill-opacity:1.0000; 
stroke:#4D7FC4; stroke-width:0.0000; stroke-opacity:1; 
stroke-linecap:round; stroke-linejoin:round;">
<circle cx="28.0400" cy="15.3400" r="1.0000" /> 
</g>
<g style="fill:#4D7FC4; fill-opacity:1.0000; 
stroke:#4D7FC4; stroke-width:0.0212; stroke-opacity:1; 
stroke-linecap:round; stroke-linejoin:round;">
</g>
<g style="fill:#4D7FC4; fill-opacity:1.0000; 
stroke:#4D7FC4; stroke-width:0.0000; stroke-opacity:1; 
stroke-linecap:round; stroke-linejoin:round;">
<circle cx="28.0400" cy="22.9600" r="1.0000" /> 
</g>
<g style="fill:#4D7FC4; fill-opacity:1.0000; 
stroke:#4D7FC4; stroke-width:0.0212; stroke-opacity:1; 
stroke-linecap:round; stroke-linejoin:round;">
</g>
<g >
</g>
<g style="fill:#4D7FC4; fill-opacity:1.0000; 
stroke:#4D7FC4; stroke-width:0.0212; stroke-opacity:1; 
stroke-linecap:round; stroke-linejoin:round;">
</g>
<g style="fill:#4D7FC4; fill-opacity:1.0000; 
stroke:#4D7FC4; stroke-width:0.0000; stroke-opacity:1; 
stroke-linecap:round; stroke-linejoin:round;">
<path style="fill:#4D7FC4; fill-opacity:1.0000; 
stroke:#4D7FC4; stroke-width:0.0000; stroke-opacity:1; 
stroke-linecap:round; stroke-linejoin:round;fill-rule:evenodd;"
d="M 27.0400,25.7700
29.0400,25.7700
29.0400,27.7700
27.0400,27.7700
Z" /> 
<circle cx="28.0400" cy="34.3900" r="1.0000" /> 
</g>
<g >
</g>
<g style="fill:#4D7FC4; fill-opacity:1.0000; 
stroke:#4D7FC4; stroke-width:0.0000; stroke-opacity:1; 
stroke-linecap:round; stroke-linejoin:round;">
<path style="fill:#4D7FC4; fill-opacity:1.0000; 
stroke:#4D7FC4; stroke-width:0.0000; stroke-opacity:1; 
stroke-linecap:round; stroke-linejoin:round;fill-rule:evenodd;"
d="M 39.7400,25.7700
41.7400,25.7700
41.7400,27.7700
39.7400,27.7700
Z" /> 
<circle cx="40.7400" cy="34.3900" r="1.0000" /> 
</g>
<g >
</g>
<g style="fill:#4D7FC4; fill-opacity:1.0000; 
stroke:#4D7FC4; stroke-width:0.0000; stroke-opacity:1; 
stroke-linecap:round; stroke-linejoin:round;">
<path style="fill:#4D7FC4; fill-opacity:1.0000; 
stroke:#4D7FC4; stroke-width:0.0000; stroke-opacity:1; 
stroke-linecap:round; stroke-linejoin:round;fill-rule:evenodd;"
d="M 14.3400,25.7700
16.3400,25.7700
16.3400,27.7700
14.3400,27.7700
Z" /> 
<circle cx="15.3400" cy="34.3900" r="1.0000" /> 
</g>
<g >
</g>
<g >
</g>
<g style="fill:#4D7FC4; fill-opacity:1.0000; 
stroke:#4D7FC4; stroke-width:0.0000; stroke-opacity:1; 
stroke-linecap:round; stroke-linejoin:round;">
</g>
<g style="fill:#4D7FC4; fill-opacity:1.0000; 
stroke:#4D7FC4; stroke-width:0.6350; stroke-opacity:1; 
stroke-linecap:round; stroke-linejoin:round;">
</g>
<g style="fill:#4D7FC4; fill-opacity:0.0; 
stroke:#4D7FC4; stroke-width:0.6350; stroke-opacity:1; 
stroke-linecap:round; stroke-linejoin:round;">
<path d="M40.7400 34.3900
L28.0400 34.3900
" />
<path d="M28.0400 34.3900
L15.3400 34.3900
" />
<path d="M29.4000 6.3600
L39.3800 6.3600
" />
<path d="M39.3800 6.3600
L40.7400 7.7200
" />
<path d="M15.3400 7.7200
L16.6967 6.3633
" />
<path d="M16.6967 6.3633
L26.6833 6.3633
" />
<path d="M15.3400 10.2600
L15.3400 15.3400
" />
<path d="M28.0400 7.7200
L29.4000 6.3600
" />
<path d="M7.7200 13.9032
L13.9032 7.7200
" />
<path d="M26.6833 6.3633
L28.0400 7.7200
" />
<path d="M7.7200 15.3400
L7.7200 13.9032
" />
<path d="M13.9032 7.7200
L15.3400 7.7200
" />
<path d="M28.0400 10.2600
L28.0400 15.3400
" />
<path d="M40.7400 10.2600
L40.7400 15.3400
" />
<path d="M40.7400 22.9600
L40.7400 26.7700
" />
<path d="M15.3400 34.3900
L7.7200 26.7700
" />
<path d="M7.7200 26.7700
L7.7200 22.9600
" />
<path d="M28.0400 22.9600
L28.0400 26.7700
" />
<path d="M15.3400 22.9600
L15.3400 26.7700
" />
</g>
<g >
</g>
<g style="fill:#4D7FC4; fill-opacity:0.0; 
stroke:#4D7FC4; stroke-width:0.6350; stroke-opacity:1; 
stroke-linecap:round; stroke-linejoin:round;">
<g >
</g>
<g style="fill:#4D7FC4; fill-opacity:1.0000; 
stroke:#4D7FC4; stroke-width:0.0000; stroke-opacity:1; 
stroke-linecap:round; stroke-linejoin:round;">
<path style="fill:#4D7FC4; fill-opacity:1.0000; 
stroke:#4D7FC4; stroke-width:0.0000; stroke-opacity:1; 
stroke-linecap:round; stroke-linejoin:round;fill-rule:evenodd;"
d="M 55.9230,0.1197
55.9688,0.1725
55.9800,0.2240
55.9800,7.4276
55.9603,7.4947
55.9075,7.5404
55.8560,7.5516
47.6452,7.5516
47.6452,33.2884
55.8560,33.2884
55.9230,33.3080
55.9688,33.3608
55.9800,33.4124
55.9800,40.6160
55.9603,40.6830
55.9075,40.7288
55.8560,40.7400
0.2240,40.7400
0.1570,40.7203
0.1112,40.6675
0.1000,40.6160
0.1000,24.0206
5.9495,24.0206
5.9495,24.0239
5.9559,24.0835
6.0062,24.2183
6.0925,24.3335
6.2077,24.4198
6.3425,24.4701
6.4021,24.4765
6.7780,24.4765
6.8450,24.4962
6.8908,24.5490
6.9020,24.6005
6.9020,26.8622
6.9107,26.9005
6.9131,26.9142
6.9175,26.9532
6.9304,26.9902
6.9343,27.0036
6.9430,27.0419
6.9601,27.0773
6.9654,27.0901
6.9783,27.1272
6.9992,27.1604
7.0060,27.1726
7.0230,27.2080
7.0475,27.2386
7.0555,27.2500
7.0764,27.2832
7.2210,27.4278
7.2210,27.4278
13.8213,34.0282
13.8548,34.0895
13.8541,34.1318
13.8557,34.1319
13.8344,34.3900
13.8549,34.6378
13.8549,34.6378
13.8549,34.6378
13.9159,34.8789
13.9610,34.9815
14.0158,35.1066
14.0158,35.1066
14.1518,35.3148
14.3203,35.4977
14.3203,35.4977
14.5165,35.6505
14.5165,35.6505
14.5165,35.6505
14.7352,35.7688
14.9704,35.8496
15.2157,35.8905
15.4643,35.8905
15.7096,35.8496
15.9448,35.7688
16.1635,35.6505
16.3597,35.4977
16.5282,35.3148
16.5612,35.2642
16.6144,35.2188
16.6650,35.2080
26.7150,35.2080
26.7820,35.2277
26.8188,35.2642
26.8518,35.3148
27.0203,35.4977
27.0203,35.4977
27.2165,35.6505
27.2165,35.6505
27.2165,35.6505
27.4352,35.7688
27.6704,35.8496
27.9157,35.8905
28.1643,35.8905
28.4096,35.8496
28.6448,35.7688
28.8635,35.6505
29.0597,35.4977
29.2282,35.3148
29.2612,35.2642
29.3144,35.2188
29.3650,35.2080
39.4150,35.2080
39.4820,35.2277
39.5188,35.2642
39.5518,35.3148
39.7203,35.4977
39.7203,35.4977
39.9165,35.6505
39.9165,35.6505
39.9165,35.6505
40.1352,35.7688
40.3704,35.8496
40.6157,35.8905
40.8643,35.8905
41.1096,35.8496
41.3448,35.7688
41.5635,35.6505
41.7597,35.4977
41.9282,35.3148
42.0642,35.1066
42.1641,34.8789
42.2251,34.6378
42.2456,34.3900
42.2251,34.1422
42.1641,33.9011
42.0642,33.6734
41.9282,33.4652
41.7597,33.2823
41.7376,33.2650
41.5635,33.1295
41.5635,33.1295
41.5635,33.1295
41.3448,33.0112
41.3448,33.0112
41.3448,33.0112
41.1096,32.9304
40.9694,32.9070
40.9065,32.8766
40.8701,32.8170
40.8716,32.7471
40.9107,32.6892
40.9423,32.6702
41.0428,32.6285
41.1683,32.5323
41.2645,32.4068
41.3250,32.2608
41.3272,32.2441
41.3555,32.1802
41.4138,32.1417
41.4502,32.1362
44.1029,32.1362
44.1029,32.1362
44.1029,28.7698
41.4411,28.7698
41.4069,28.7698
41.3398,28.7501
41.2941,28.6973
41.2923,28.6932
41.2645,28.6262
41.1683,28.5007
41.1581,28.4929
41.1169,28.4364
41.1127,28.3667
41.1469,28.3058
41.2086,28.2730
41.2335,28.2705
41.7879,28.2705
41.8475,28.2641
41.9823,28.2138
42.0975,28.1275
42.1838,28.0123
42.2341,27.8775
42.2405,27.8179
42.2405,25.7221
42.2341,25.6625
42.1838,25.5277
42.0975,25.4125
41.9823,25.3262
41.8475,25.2759
41.7879,25.2695
41.7846,25.2695
41.6820,25.2695
41.6150,25.2498
41.5692,25.1970
41.5580,25.1455
41.5580,24.2854
41.5777,24.2183
41.6058,24.1875
41.7597,24.0677
41.9282,23.8848
42.0642,23.6766
42.1641,23.4489
42.2251,23.2078
42.2456,22.9600
42.2251,22.7122
42.1641,22.4711
42.0642,22.2434
41.9282,22.0352
41.7597,21.8523
41.7376,21.8350
41.5635,21.6995
41.5635,21.6995
41.5635,21.6995
41.3448,21.5812
41.3448,21.5812
41.3448,21.5812
41.1096,21.5004
40.8643,21.4595
40.6157,21.4595
40.3704,21.5004
40.2031,21.5579
40.1333,21.5610
40.0729,21.5259
40.0410,21.4637
40.0389,21.4406
40.0389,17.1176
37.3771,17.1176
37.3771,21.4364
39.9130,21.4364
39.9800,21.4561
40.0258,21.5089
40.0357,21.5781
40.0067,21.6416
39.9720,21.6695
39.9301,21.6922
39.9165,21.6995
39.7203,21.8523
39.7203,21.8523
39.7203,21.8523
39.5518,22.0352
39.4158,22.2434
39.3159,22.4711
39.2549,22.7122
39.2344,22.9600
39.2549,23.2078
39.2549,23.2078
39.2549,23.2078
39.3159,23.4489
39.3610,23.5515
39.4158,23.6766
39.4158,23.6766
39.5518,23.8848
39.7203,24.0677
39.8742,24.1875
39.9150,24.2442
39.9220,24.2854
39.9220,25.1455
39.9023,25.2125
39.8495,25.2583
39.7980,25.2695
39.6954,25.2695
39.6954,25.2695
39.6921,25.2695
39.6888,25.2699
39.6888,25.2699
39.6325,25.2759
39.4977,25.3262
39.3825,25.4125
39.2962,25.5277
39.2459,25.6625
39.2459,25.6625
39.2395,25.7221
39.2395,25.7254
39.2395,25.7254
39.2395,27.8146
39.2395,27.8146
39.2395,27.8179
39.2459,27.8775
39.2962,28.0123
39.3825,28.1275
39.4977,28.2138
39.6325,28.2641
39.6921,28.2705
40.2465,28.2705
40.3135,28.2902
40.3592,28.3430
40.3692,28.4121
40.3402,28.4757
40.3219,28.4929
40.3117,28.5007
40.2155,28.6262
40.1550,28.7722
40.1440,28.8557
40.1157,28.9196
40.0574,28.9581
40.0210,28.9635
39.6846,28.9635
39.6806,28.9640
39.6806,28.9640
39.5672,28.9790
39.4212,29.0395
39.2957,29.1357
39.1995,29.2612
39.1390,29.4072
39.1183,29.5640
39.1390,29.7208
39.1995,29.8668
39.2957,29.9923
39.4212,30.0885
39.4841,30.1146
39.5385,30.1585
39.5606,30.2247
39.5433,30.2924
39.5387,30.2996
39.2402,30.7318
39.2366,30.7368
39.1995,30.7852
39.1804,30.8311
39.1762,30.8402
39.1535,30.8845
39.1507,30.8975
39.1441,30.9189
39.1390,30.9312
39.1325,30.9806
39.1308,30.9904
39.1203,31.0391
39.1210,31.0524
39.1201,31.0748
39.1183,31.0880
39.1248,31.1373
39.1257,31.1473
39.1282,31.1970
39.1323,31.2097
39.1372,31.2315
39.1390,31.2448
39.1580,31.2907
39.1615,31.3001
39.1767,31.3475
39.1840,31.3587
39.1944,31.3785
39.1995,31.3908
39.2298,31.4303
39.2355,31.4385
39.2625,31.4803
39.2724,31.4892
39.2876,31.5057
39.2957,31.5163
39.3352,31.5466
39.3429,31.5530
39.3798,31.5864
39.3917,31.5924
39.4106,31.6044
39.4212,31.6125
39.4671,31.6316
39.4762,31.6358
39.5205,31.6585
39.5335,31.6613
39.5549,31.6679
39.5672,31.6730
39.6166,31.6795
39.6264,31.6812
39.6751,31.6917
39.7359,31.6887
39.7422,31.6885
40.0155,31.6885
40.0825,31.7082
40.1283,31.7610
40.1395,31.8125
40.1395,32.1434
40.1400,32.1474
40.1400,32.1474
40.1550,32.2608
40.2155,32.4068
40.3117,32.5323
40.4372,32.6285
40.4372,32.6285
40.5376,32.6702
40.5921,32.7140
40.6141,32.7803
40.5968,32.8480
40.5457,32.8956
40.5106,32.9070
40.3704,32.9304
40.1352,33.0112
39.9165,33.1295
39.7203,33.2823
39.7203,33.2823
39.7203,33.2823
39.6005,33.4124
39.5518,33.4652
39.5188,33.5158
39.4656,33.5612
39.4150,33.5720
29.3650,33.5720
29.2980,33.5523
29.2612,33.5158
29.2282,33.4652
29.0597,33.2823
29.0376,33.2650
28.8635,33.1295
28.8635,33.1295
28.8635,33.1295
28.6448,33.0112
28.6448,33.0112
28.6448,33.0112
28.4096,32.9304
28.2694,32.9070
28.2065,32.8766
28.1701,32.8170
28.1716,32.7471
28.2107,32.6892
28.2423,32.6702
28.3428,32.6285
28.4683,32.5323
28.5645,32.4068
28.5645,32.4068
28.5693,32.4007
28.6257,32.3595
28.6954,32.3553
28.7297,32.3743
28.7411,32.3743
31.4029,32.3743
31.4029,28.5317
28.7411,28.5317
28.7242,28.5486
28.7215,28.5581
28.6687,28.6038
28.5995,28.6138
28.5359,28.5847
28.5188,28.5665
28.4683,28.5007
28.4581,28.4929
28.4169,28.4364
28.4127,28.3667
28.4469,28.3058
28.5086,28.2730
28.5335,28.2705
29.0879,28.2705
29.1475,28.2641
29.2823,28.2138
29.3975,28.1275
29.4838,28.0123
29.5341,27.8775
29.5405,27.8179
29.5405,25.7221
29.5341,25.6625
29.4838,25.5277
29.3975,25.4125
29.2823,25.3262
29.1475,25.2759
29.0879,25.2695
29.0846,25.2695
28.9820,25.2695
28.9150,25.2498
28.8692,25.1970
28.8580,25.1455
28.8580,24.2854
28.8777,24.2183
28.9058,24.1875
29.0597,24.0677
29.2282,23.8848
29.3642,23.6766
29.4641,23.4489
29.5251,23.2078
29.5456,22.9600
29.5251,22.7122
29.4641,22.4711
29.3642,22.2434
29.2282,22.0352
29.0597,21.8523
29.0376,21.8350
28.8635,21.6995
28.8635,21.6995
28.8635,21.6995
28.6448,21.5812
28.6448,21.5812
28.6448,21.5812
28.4096,21.5004
28.1643,21.4595
27.9157,21.4595
27.6704,21.5004
27.5031,21.5579
27.4333,21.5610
27.3729,21.5259
27.3410,21.4637
27.3389,21.4406
27.3389,17.1176
24.6771,17.1176
24.6771,21.4364
27.2130,21.4364
27.2800,21.4561
27.3258,21.5089
27.3357,21.5781
27.3067,21.6416
27.2720,21.6695
27.2301,21.6922
27.2165,21.6995
27.0203,21.8523
27.0203,21.8523
27.0203,21.8523
26.8518,22.0352
26.7158,22.2434
26.6159,22.4711
26.5549,22.7122
26.5344,22.9600
26.5549,23.2078
26.5549,23.2078
26.5549,23.2078
26.6159,23.4489
26.6610,23.5515
26.7158,23.6766
26.7158,23.6766
26.8518,23.8848
27.0203,24.0677
27.1742,24.1875
27.2150,24.2442
27.2220,24.2854
27.2220,25.1455
27.2023,25.2125
27.1495,25.2583
27.0980,25.2695
26.9954,25.2695
26.9954,25.2695
26.9921,25.2695
26.9888,25.2699
26.9888,25.2699
26.9325,25.2759
26.7977,25.3262
26.6825,25.4125
26.5962,25.5277
26.5459,25.6625
26.5459,25.6625
26.5395,25.7221
26.5395,25.7254
26.5395,25.7254
26.5395,27.8146
26.5395,27.8146
26.5395,27.8179
26.5459,27.8775
26.5962,28.0123
26.6825,28.1275
26.7977,28.2138
26.9325,28.2641
26.9921,28.2705
27.5465,28.2705
27.6135,28.2902
27.6592,28.3430
27.6692,28.4121
27.6402,28.4757
27.6219,28.4929
27.6117,28.5007
27.5155,28.6262
27.4550,28.7722
27.4440,28.8557
27.4157,28.9196
27.3574,28.9581
27.3210,28.9635
26.9846,28.9635
26.9806,28.9640
26.9806,28.9640
26.8672,28.9790
26.7212,29.0395
26.5957,29.1357
26.4995,29.2612
26.4390,29.4072
26.4183,29.5640
26.4390,29.7208
26.4995,29.8668
26.5957,29.9923
26.7212,30.0885
26.7841,30.1146
26.8385,30.1585
26.8606,30.2247
26.8433,30.2924
26.8387,30.2996
26.5402,30.7318
26.5366,30.7368
26.4995,30.7852
26.4804,30.8311
26.4762,30.8402
26.4535,30.8845
26.4507,30.8975
26.4441,30.9189
26.4390,30.9312
26.4325,30.9806
26.4308,30.9904
26.4203,31.0391
26.4210,31.0524
26.4201,31.0748
26.4183,31.0880
26.4248,31.1373
26.4257,31.1473
26.4282,31.1970
26.4323,31.2097
26.4372,31.2315
26.4390,31.2448
26.4580,31.2907
26.4615,31.3001
26.4767,31.3475
26.4840,31.3587
26.4944,31.3785
26.4995,31.3908
26.5298,31.4303
26.5355,31.4385
26.5625,31.4803
26.5724,31.4892
26.5876,31.5057
26.5957,31.5163
26.6352,31.5466
26.6429,31.5530
26.6798,31.5864
26.6917,31.5924
26.7106,31.6044
26.7212,31.6125
26.7671,31.6316
26.7762,31.6358
26.8205,31.6585
26.8335,31.6613
26.8549,31.6679
26.8672,31.6730
26.9166,31.6795
26.9264,31.6812
26.9751,31.6917
27.0359,31.6887
27.0422,31.6885
27.3155,31.6885
27.3825,31.7082
27.4283,31.7610
27.4395,31.8125
27.4395,32.1434
27.4400,32.1474
27.4400,32.1474
27.4550,32.2608
27.5155,32.4068
27.6117,32.5323
27.7372,32.6285
27.7372,32.6285
27.8376,32.6702
27.8921,32.7140
27.9141,32.7803
27.8968,32.8480
27.8457,32.8956
27.8106,32.9070
27.6704,32.9304
27.4352,33.0112
27.2165,33.1295
27.0203,33.2823
27.0203,33.2823
27.0203,33.2823
26.9005,33.4124
26.8518,33.4652
26.8188,33.5158
26.7656,33.5612
26.7150,33.5720
16.6650,33.5720
16.5980,33.5523
16.5612,33.5158
16.5282,33.4652
16.3597,33.2823
16.3376,33.2650
16.1635,33.1295
16.1635,33.1295
16.1635,33.1295
15.9448,33.0112
15.9448,33.0112
15.9448,33.0112
15.7096,32.9304
15.5694,32.9070
15.5065,32.8766
15.4701,32.8170
15.4716,32.7471
15.5107,32.6892
15.5423,32.6702
15.6428,32.6285
15.7683,32.5323
15.8645,32.4068
15.8645,32.4068
15.8693,32.4007
15.9257,32.3595
15.9954,32.3553
16.0297,32.3743
16.0411,32.3743
18.7029,32.3743
18.7029,28.5317
16.0411,28.5317
16.0242,28.5486
16.0215,28.5581
15.9687,28.6038
15.8995,28.6138
15.8359,28.5847
15.8188,28.5665
15.7683,28.5007
15.7581,28.4929
15.7169,28.4364
15.7127,28.3667
15.7469,28.3058
15.8086,28.2730
15.8335,28.2705
16.3879,28.2705
16.4475,28.2641
16.5823,28.2138
16.6975,28.1275
16.7838,28.0123
16.8341,27.8775
16.8405,27.8179
16.8405,25.7221
16.8341,25.6625
16.7838,25.5277
16.6975,25.4125
16.5823,25.3262
16.4475,25.2759
16.3879,25.2695
16.3846,25.2695
16.2820,25.2695
16.2150,25.2498
16.1692,25.1970
16.1580,25.1455
16.1580,24.2854
16.1777,24.2183
16.2058,24.1875
16.3597,24.0677
16.5282,23.8848
16.6642,23.6766
16.7641,23.4489
16.8251,23.2078
16.8456,22.9600
16.8251,22.7122
16.7641,22.4711
16.6642,22.2434
16.5282,22.0352
16.3597,21.8523
16.3376,21.8350
16.1635,21.6995
16.1635,21.6995
16.1635,21.6995
15.9448,21.5812
15.9448,21.5812
15.9448,21.5812
15.7096,21.5004
15.4643,21.4595
15.2157,21.4595
14.9704,21.5004
14.8031,21.5579
14.7333,21.5610
14.6729,21.5259
14.6410,21.4637
14.6389,21.4406
14.6389,17.1176
12.6039,17.1176
12.5368,17.0979
12.4911,17.0451
12.4799,16.9936
12.4799,16.8160
9.8181,16.8160
9.8181,21.2300
11.8531,21.2300
11.9202,21.2497
11.9659,21.3025
11.9771,21.3540
11.9771,21.4364
14.5130,21.4364
14.5800,21.4561
14.6258,21.5089
14.6357,21.5781
14.6067,21.6416
14.5720,21.6695
14.5301,21.6922
14.5165,21.6995
14.3203,21.8523
14.3203,21.8523
14.3203,21.8523
14.1518,22.0352
14.0158,22.2434
13.9159,22.4711
13.8549,22.7122
13.8344,22.9600
13.8549,23.2078
13.8549,23.2078
13.8549,23.2078
13.9159,23.4489
13.9610,23.5515
14.0158,23.6766
14.0158,23.6766
14.1518,23.8848
14.3203,24.0677
14.4742,24.1875
14.5150,24.2442
14.5220,24.2854
14.5220,25.1455
14.5023,25.2125
14.4495,25.2583
14.3980,25.2695
14.2954,25.2695
14.2954,25.2695
14.2921,25.2695
14.2888,25.2699
14.2888,25.2699
14.2325,25.2759
14.0977,25.3262
13.9825,25.4125
13.8962,25.5277
13.8459,25.6625
13.8459,25.6625
13.8395,25.7221
13.8395,25.7254
13.8395,25.7254
13.8395,27.8146
13.8395,27.8146
13.8395,27.8179
13.8459,27.8775
13.8962,28.0123
13.9825,28.1275
14.0977,28.2138
14.2325,28.2641
14.2921,28.2705
14.8465,28.2705
14.9135,28.2902
14.9592,28.3430
14.9692,28.4121
14.9402,28.4757
14.9219,28.4929
14.9117,28.5007
14.8155,28.6262
14.7550,28.7722
14.7440,28.8557
14.7157,28.9196
14.6574,28.9581
14.6210,28.9635
14.2846,28.9635
14.2806,28.9640
14.2806,28.9640
14.1672,28.9790
14.0212,29.0395
13.8957,29.1357
13.7995,29.2612
13.7390,29.4072
13.7183,29.5640
13.7390,29.7208
13.7995,29.8668
13.8957,29.9923
14.0212,30.0885
14.0841,30.1146
14.1385,30.1585
14.1606,30.2247
14.1433,30.2924
14.1387,30.2996
13.8402,30.7318
13.8366,30.7368
13.7995,30.7852
13.7804,30.8311
13.7762,30.8402
13.7535,30.8845
13.7507,30.8975
13.7441,30.9189
13.7390,30.9312
13.7325,30.9806
13.7308,30.9904
13.7203,31.0391
13.7210,31.0524
13.7201,31.0748
13.7183,31.0880
13.7248,31.1373
13.7257,31.1473
13.7282,31.1970
13.7323,31.2097
13.7372,31.2315
13.7390,31.2448
13.7580,31.2907
13.7615,31.3001
13.7724,31.3342
13.7743,31.4040
13.7380,31.4638
13.6753,31.4944
13.6059,31.4863
13.5667,31.4599
8.5743,26.4675
8.5408,26.4062
8.5380,26.3798
8.5380,24.6005
8.5577,24.5335
8.6105,24.4877
8.6620,24.4765
9.0346,24.4765
9.0379,24.4765
9.0975,24.4701
9.2323,24.4198
9.3475,24.3335
9.4338,24.2183
9.4841,24.0835
9.4905,24.0239
9.4905,21.8961
9.4841,21.8365
9.4338,21.7017
9.3475,21.5865
9.2323,21.5002
9.2323,21.5002
9.0975,21.4499
9.0766,21.4477
9.0120,21.4209
8.9722,21.3635
8.9697,21.2937
8.9841,21.2596
9.0754,21.1106
9.1667,20.8901
9.2225,20.6580
9.2412,20.4200
9.2225,20.1820
9.1667,19.9499
9.0754,19.7294
8.9507,19.5259
8.7956,19.3444
8.6785,19.2443
8.6403,19.1858
8.6398,19.1159
8.6771,19.0569
8.6784,19.0557
8.7956,18.9556
8.9507,18.7741
9.0754,18.5706
9.1667,18.3501
9.2225,18.1180
9.2412,17.8800
9.2225,17.6420
9.1667,17.4099
9.0754,17.1894
8.9507,16.9859
8.7956,16.8044
8.6955,16.7188
8.6785,16.7043
8.6403,16.6458
8.6398,16.5759
8.6771,16.5169
8.6784,16.5158
8.7956,16.4156
8.9507,16.2341
9.0754,16.0306
9.1667,15.8101
9.2225,15.5780
9.2412,15.3400
9.2225,15.1020
9.1667,14.8699
9.1589,14.8511
9.0754,14.6494
9.0754,14.6494
8.9507,14.4459
8.7956,14.2644
8.7466,14.2225
8.7084,14.1640
8.7079,14.0941
8.7395,14.0405
13.3578,9.4222
13.4191,9.3887
13.4888,9.3937
13.5448,9.4355
13.5692,9.5010
13.5695,9.5098
13.5695,11.3206
13.5695,11.3206
13.5695,11.3239
13.5759,11.3835
13.6262,11.5183
13.7125,11.6335
13.8277,11.7198
13.9625,11.7701
14.0221,11.7765
14.3980,11.7765
14.4650,11.7962
14.5108,11.8490
14.5220,11.9005
14.5220,14.0146
14.5023,14.0817
14.4742,14.1125
14.3203,14.2323
14.2907,14.2644
14.1518,14.4152
14.1065,14.4846
14.0158,14.6234
13.9258,14.8287
13.9159,14.8511
13.8549,15.0922
13.8549,15.0922
13.8344,15.3400
13.8549,15.5878
13.8549,15.5878
13.8549,15.5878
13.9159,15.8289
13.9610,15.9315
14.0158,16.0566
14.0158,16.0566
14.1518,16.2648
14.3203,16.4477
14.3203,16.4477
14.5165,16.6005
14.5165,16.6005
14.5165,16.6005
14.7352,16.7188
14.9704,16.7996
15.2157,16.8405
15.4643,16.8405
15.7096,16.7996
15.9448,16.7188
16.1635,16.6005
16.3597,16.4477
16.5282,16.2648
16.6642,16.0566
16.7641,15.8289
16.8251,15.5878
16.8456,15.3400
16.8251,15.0922
16.7641,14.8511
16.6642,14.6234
16.5282,14.4152
16.3597,14.2323
16.2058,14.1125
16.1650,14.0558
16.1580,14.0146
16.1580,11.9005
16.1777,11.8335
16.2305,11.7877
16.2820,11.7765
16.6546,11.7765
16.6579,11.7765
16.7175,11.7701
16.8523,11.7198
16.9675,11.6335
17.0538,11.5183
17.0710,11.4723
17.1128,11.4164
17.1783,11.3920
17.2466,11.4068
17.2960,11.4562
17.3111,11.5156
17.3111,12.0860
19.9729,12.0860
19.9729,7.3053
19.9925,7.2383
20.0453,7.1925
20.0969,7.1813
26.2931,7.1813
26.3602,7.2010
26.3808,7.2176
26.4040,7.2408
26.4374,7.3021
26.4368,7.3574
26.4117,7.4621
26.3914,7.7200
26.4117,7.9779
26.4721,8.2294
26.5345,8.3802
26.5711,8.4684
26.5711,8.4684
26.6498,8.5969
26.6681,8.6644
26.6470,8.7310
26.5932,8.7756
26.5875,8.7779
26.5277,8.8002
26.5277,8.8002
26.4125,8.8865
26.3262,9.0017
26.2794,9.1271
26.2759,9.1365
26.2695,9.1961
26.2695,9.1994
26.2695,9.1994
26.2695,11.3206
26.2695,11.3206
26.2695,11.3239
26.2759,11.3835
26.3262,11.5183
26.4125,11.6335
26.5277,11.7198
26.6625,11.7701
26.7221,11.7765
27.0980,11.7765
27.1650,11.7962
27.2108,11.8490
27.2220,11.9005
27.2220,14.0146
27.2023,14.0817
27.1742,14.1125
27.0203,14.2323
26.9907,14.2644
26.8518,14.4152
26.8065,14.4846
26.7158,14.6234
26.6258,14.8287
26.6159,14.8511
26.5549,15.0922
26.5549,15.0922
26.5344,15.3400
26.5549,15.5878
26.5549,15.5878
26.5549,15.5878
26.6159,15.8289
26.6610,15.9315
26.7158,16.0566
26.7158,16.0566
26.8518,16.2648
27.0203,16.4477
27.0203,16.4477
27.2165,16.6005
27.2165,16.6005
27.2165,16.6005
27.4352,16.7188
27.6704,16.7996
27.9157,16.8405
28.1643,16.8405
28.4096,16.7996
28.6448,16.7188
28.8635,16.6005
29.0597,16.4477
29.2282,16.2648
29.3642,16.0566
29.4641,15.8289
29.5251,15.5878
29.5456,15.3400
29.5251,15.0922
29.4641,14.8511
29.3642,14.6234
29.2282,14.4152
29.0597,14.2323
28.9058,14.1125
28.8650,14.0558
28.8580,14.0146
28.8580,11.9005
28.8777,11.8335
28.9305,11.7877
28.9820,11.7765
29.3546,11.7765
29.3579,11.7765
29.4175,11.7701
29.5523,11.7198
29.6675,11.6335
29.7538,11.5183
29.7710,11.4723
29.8128,11.4164
29.8783,11.3920
29.9466,11.4068
29.9960,11.4562
30.0111,11.5156
30.0111,12.0145
32.6729,12.0145
32.6729,7.3020
32.6925,7.2350
32.7453,7.1892
32.7969,7.1780
38.9898,7.1780
39.0568,7.1977
39.0775,7.2143
39.1040,7.2408
39.1374,7.3021
39.1368,7.3574
39.1117,7.4621
39.0914,7.7200
39.1117,7.9779
39.1721,8.2294
39.2345,8.3802
39.2711,8.4684
39.2711,8.4684
39.3498,8.5969
39.3681,8.6644
39.3470,8.7310
39.2932,8.7756
39.2875,8.7779
39.2277,8.8002
39.2277,8.8002
39.1125,8.8865
39.0262,9.0017
38.9794,9.1271
38.9759,9.1365
38.9695,9.1961
38.9695,9.1994
38.9695,9.1994
38.9695,11.3206
38.9695,11.3206
38.9695,11.3239
38.9759,11.3835
39.0262,11.5183
39.1125,11.6335
39.2277,11.7198
39.3625,11.7701
39.4221,11.7765
39.7980,11.7765
39.8650,11.7962
39.9108,11.8490
39.9220,11.9005
39.9220,14.0146
39.9023,14.0817
39.8742,14.1125
39.7203,14.2323
39.6907,14.2644
39.5518,14.4152
39.5065,14.4846
39.4158,14.6234
39.3258,14.8287
39.3159,14.8511
39.2549,15.0922
39.2549,15.0922
39.2344,15.3400
39.2549,15.5878
39.2549,15.5878
39.2549,15.5878
39.3159,15.8289
39.3610,15.9315
39.4158,16.0566
39.4158,16.0566
39.5518,16.2648
39.7203,16.4477
39.7203,16.4477
39.9165,16.6005
39.9165,16.6005
39.9165,16.6005
40.1352,16.7188
40.3704,16.7996
40.6157,16.8405
40.8643,16.8405
41.1096,16.7996
41.3448,16.7188
41.5635,16.6005
41.7597,16.4477
41.9282,16.2648
42.0642,16.0566
42.1641,15.8289
42.2251,15.5878
42.2456,15.3400
42.2251,15.0922
42.1641,14.8511
42.0642,14.6234
41.9282,14.4152
41.7597,14.2323
41.6058,14.1125
41.5650,14.0558
41.5580,14.0146
41.5580,11.9005
41.5777,11.8335
41.6305,11.7877
41.6820,11.7765
42.0546,11.7765
42.0579,11.7765
42.1175,11.7701
42.2523,11.7198
42.3675,11.6335
42.4538,11.5183
42.4710,11.4723
42.5128,11.4164
42.5783,11.3920
42.6466,11.4068
42.6960,11.4562
42.7111,11.5156
42.7111,12.0860
45.3729,12.0860
45.3729,6.1480
42.7111,6.1480
42.7111,9.0044
42.6915,9.0714
42.6387,9.1172
42.5695,9.1271
42.5059,9.0981
42.4710,9.0477
42.4538,9.0017
42.3675,8.8865
42.2523,8.8002
42.1925,8.7779
42.1366,8.7360
42.1122,8.6706
42.1270,8.6023
42.1301,8.5970
42.2089,8.4684
42.3079,8.2294
42.3683,7.9779
42.3886,7.7200
42.3683,7.4621
42.3079,7.2106
42.3026,7.1977
42.2523,7.0764
42.2089,6.9716
42.0737,6.7510
42.0737,6.7510
42.0737,6.7510
41.9057,6.5543
41.7090,6.3863
41.6278,6.3365
41.4884,6.2511
41.4002,6.2145
41.2494,6.1521
40.9979,6.0917
40.8689,6.0816
40.7400,6.0714
40.7400,6.0714
40.4821,6.0917
40.3774,6.1168
40.3076,6.1134
40.2608,6.0840
40.0378,5.8610
40.0378,5.8610
39.8932,5.7164
39.8600,5.6955
39.8486,5.6875
39.8179,5.6630
39.7826,5.6460
39.7704,5.6392
39.7372,5.6183
39.7001,5.6054
39.6872,5.6000
39.6519,5.5830
39.6136,5.5743
39.6002,5.5704
39.5632,5.5575
39.5242,5.5531
39.5104,5.5507
39.4722,5.5420
39.4722,5.5420
39.4259,5.5420
29.4922,5.5420
29.3078,5.5420
29.3078,5.5420
29.2696,5.5507
29.2558,5.5531
29.2168,5.5575
29.1798,5.5704
29.1664,5.5743
29.1281,5.5830
29.0927,5.6000
29.0799,5.6054
29.0428,5.6183
29.0210,5.6321
29.0096,5.6392
28.9974,5.6460
28.9621,5.6630
28.9313,5.6875
28.9200,5.6955
28.8868,5.7164
28.7564,5.8468
28.5192,6.0840
28.4579,6.1174
28.4026,6.1168
28.2979,6.0917
28.0400,6.0714
27.7821,6.0917
27.6774,6.1168
27.6076,6.1134
27.5608,6.0840
27.3411,5.8643
27.3411,5.8643
27.1966,5.7197
27.1633,5.6989
27.1520,5.6908
27.1213,5.6663
27.0859,5.6493
27.0737,5.6426
27.0405,5.6217
27.0034,5.6087
26.9906,5.6034
26.9552,5.5863
26.9169,5.5776
26.9036,5.5738
26.8665,5.5608
26.8275,5.5564
26.8138,5.5541
26.7755,5.5453
26.7755,5.5453
26.7293,5.5453
16.7888,5.5453
16.6045,5.5453
16.6045,5.5453
16.5662,5.5541
16.5525,5.5564
16.5135,5.5608
16.4764,5.5738
16.4631,5.5776
16.4248,5.5863
16.3894,5.6034
16.3766,5.6087
16.3395,5.6217
16.3063,5.6426
16.2941,5.6493
16.2587,5.6663
16.2280,5.6908
16.2167,5.6989
16.1834,5.7197
16.1333,5.7699
16.1333,5.7699
15.8192,6.0840
15.7579,6.1174
15.7026,6.1168
15.5979,6.0917
15.3400,6.0714
15.0821,6.0917
14.8306,6.1521
14.5916,6.2511
14.3710,6.3863
14.1743,6.5543
14.0063,6.7510
13.9694,6.8112
13.9500,6.8428
13.8982,6.8897
13.8443,6.9020
13.8110,6.9020
13.7727,6.9107
13.7590,6.9131
13.7200,6.9175
13.6829,6.9304
13.6696,6.9343
13.6313,6.9430
13.5959,6.9601
13.5831,6.9654
13.5460,6.9783
13.5127,6.9992
13.5006,7.0060
13.4652,7.0230
13.4345,7.0475
13.4232,7.0555
13.3899,7.0764
13.2986,7.1677
13.2986,7.1677
7.2068,13.2596
7.0764,13.3899
7.0555,13.4232
7.0475,13.4345
7.0230,13.4652
7.0060,13.5006
6.9992,13.5127
6.9921,13.5242
6.9783,13.5460
6.9654,13.5831
6.9601,13.5959
6.9430,13.6313
6.9343,13.6696
6.9304,13.6829
6.9175,13.7200
6.9131,13.7590
6.9107,13.7727
6.9020,13.8110
6.9020,13.9932
6.8823,14.0603
6.8428,14.0990
6.8259,14.1093
6.6444,14.2644
6.4893,14.4459
6.3646,14.6494
6.2733,14.8699
6.2175,15.1020
6.1988,15.3400
6.2175,15.5780
6.2733,15.8101
6.3646,16.0306
6.3646,16.0306
6.3805,16.0566
6.4893,16.2341
6.5155,16.2648
6.6444,16.4156
6.6819,16.4477
6.7615,16.5157
6.7997,16.5742
6.8002,16.6441
6.7629,16.7031
6.7615,16.7043
6.6444,16.8044
6.4893,16.9859
6.3646,17.1894
6.2733,17.4099
6.2175,17.6420
6.1988,17.8800
6.2175,18.1180
6.2733,18.3501
6.3646,18.5706
6.4893,18.7741
6.5509,18.8462
6.6444,18.9556
6.7299,19.0287
6.7615,19.0557
6.7997,19.1142
6.8002,19.1841
6.7629,19.2431
6.7615,19.2443
6.6444,19.3444
6.4893,19.5259
6.3646,19.7294
6.2733,19.9499
6.2175,20.1820
6.1988,20.4200
6.2175,20.6580
6.2733,20.8901
6.3379,21.0460
6.3646,21.1106
6.4559,21.2596
6.4559,21.2596
6.4741,21.3270
6.4530,21.3936
6.3993,21.4382
6.3634,21.4477
6.3576,21.4483
6.3425,21.4499
6.2077,21.5002
6.0925,21.5865
6.0062,21.7017
5.9559,21.8365
5.9559,21.8365
5.9495,21.8961
5.9495,21.8994
5.9495,21.8994
5.9495,24.0206
5.9495,24.0206
0.1000,24.0206
0.1000,0.2240
0.1197,0.1570
0.1725,0.1112
0.2240,0.1000
55.8560,0.1000
Z" /> 
<path style="fill:#4D7FC4; fill-opacity:1.0000; 
stroke:#4D7FC4; stroke-width:0.0000; stroke-opacity:1; 
stroke-linecap:round; stroke-linejoin:round;fill-rule:evenodd;"
d="M 29.9542,7.1977
29.9999,7.2505
30.0111,7.3020
30.0111,9.0044
29.9915,9.0714
29.9387,9.1172
29.8695,9.1271
29.8059,9.0981
29.7710,9.0477
29.7538,9.0017
29.6675,8.8865
29.5523,8.8002
29.4925,8.7779
29.4366,8.7360
29.4122,8.6706
29.4270,8.6023
29.4301,8.5970
29.5089,8.4684
29.6079,8.2294
29.6683,7.9779
29.6886,7.7200
29.6683,7.4621
29.6431,7.3574
29.6466,7.2876
29.6760,7.2408
29.7025,7.2143
29.7638,7.1808
29.7902,7.1780
29.8871,7.1780
Z" /> 
<path style="fill:#4D7FC4; fill-opacity:1.0000; 
stroke:#4D7FC4; stroke-width:0.0000; stroke-opacity:1; 
stroke-linecap:round; stroke-linejoin:round;fill-rule:evenodd;"
d="M 17.2542,7.2010
17.2999,7.2538
17.3111,7.3053
17.3111,9.0044
17.2915,9.0714
17.2387,9.1172
17.1695,9.1271
17.1059,9.0981
17.0710,9.0477
17.0538,9.0017
16.9675,8.8865
16.8523,8.8002
16.7925,8.7779
16.7366,8.7360
16.7122,8.6706
16.7270,8.6023
16.7301,8.5970
16.8089,8.4684
16.9079,8.2294
16.9683,7.9779
16.9886,7.7200
16.9683,7.4621
16.9431,7.3574
16.9466,7.2876
16.9760,7.2408
16.9992,7.2176
17.0605,7.1842
17.0869,7.1813
17.1871,7.1813
Z" /> 
<path style="fill:#4D7FC4; fill-opacity:1.0000; 
stroke:#4D7FC4; stroke-width:0.0000; stroke-opacity:1; 
stroke-linecap:round; stroke-linejoin:round;fill-rule:evenodd;"
d="M 14.0940,31.6449
14.1205,31.6585
14.1335,31.6613
14.1549,31.6679
14.1672,31.6730
14.2166,31.6795
14.2264,31.6812
14.2751,31.6917
14.3359,31.6887
14.3422,31.6885
14.6155,31.6885
14.6825,31.7082
14.7283,31.7610
14.7395,31.8125
14.7395,32.1434
14.7400,32.1474
14.7400,32.1474
14.7550,32.2608
14.7903,32.3461
14.7978,32.4156
14.7665,32.4781
14.7064,32.5137
14.6366,32.5112
14.5881,32.4812
13.9497,31.8429
13.9163,31.7816
13.9212,31.7119
13.9631,31.6560
14.0286,31.6315
Z" /> 
</g>
</g>
</g>
<g style="fill:#FFFFFF; fill-opacity:1.0000; 
stroke:#FFFFFF; stroke-width:0.0000; stroke-opacity:1; 
stroke-linecap:round; stroke-linejoin:round;">
<circle cx="28.0400" cy="10.2600" r="0.4500" /> 
</g>
<g style="fill:#FFFFFF; fill-opacity:1.0000; 
stroke:#FFFFFF; stroke-width:0.0212; stroke-opacity:1; 
stroke-linecap:round; stroke-linejoin:round;">
</g>
<g style="fill:#FFFFFF; fill-opacity:1.0000; 
stroke:#FFFFFF; stroke-width:0.0000; stroke-opacity:1; 
stroke-linecap:round; stroke-linejoin:round;">
<circle cx="28.0400" cy="7.7200" r="0.4500" /> 
</g>
<g style="fill:#FFFFFF; fill-opacity:1.0000; 
stroke:#FFFFFF; stroke-width:0.0212; stroke-opacity:1; 
stroke-linecap:round; stroke-linejoin:round;">
</g>
<g style="fill:#FFFFFF; fill-opacity:1.0000; 
stroke:#FFFFFF; stroke-width:0.0000; stroke-opacity:1; 
stroke-linecap:round; stroke-linejoin:round;">
<circle cx="15.3400" cy="15.3400" r="0.4000" /> 
</g>
<g style="fill:#FFFFFF; fill-opacity:1.0000; 
stroke:#FFFFFF; stroke-width:0.0212; stroke-opacity:1; 
stroke-linecap:round; stroke-linejoin:round;">
</g>
<g style="fill:#FFFFFF; fill-opacity:1.0000; 
stroke:#FFFFFF; stroke-width:0.0000; stroke-opacity:1; 
stroke-linecap:round; stroke-linejoin:round;">
<circle cx="15.3400" cy="22.9600" r="0.4000" /> 
</g>
<g style="fill:#FFFFFF; fill-opacity:1.0000; 
stroke:#FFFFFF; stroke-width:0.0212; stroke-opacity:1; 
stroke-linecap:round; stroke-linejoin:round;">
</g>
<g style="fill:#FFFFFF; fill-opacity:1.0000; 
stroke:#FFFFFF; stroke-width:0.0000; stroke-opacity:1; 
stroke-linecap:round; stroke-linejoin:round;">
<circle cx="40.7400" cy="15.3400" r="0.4000" /> 
</g>
<g style="fill:#FFFFFF; fill-opacity:1.0000; 
stroke:#FFFFFF; stroke-width:0.0212; stroke-opacity:1; 
stroke-linecap:round; stroke-linejoin:round;">
</g>
<g style="fill:#FFFFFF; fill-opacity:1.0000; 
stroke:#FFFFFF; stroke-width:0.0000; stroke-opacity:1; 
stroke-linecap:round; stroke-linejoin:round;">
<circle cx="40.7400" cy="22.9600" r="0.4000" /> 
</g>
<g style="fill:#FFFFFF; fill-opacity:1.0000; 
stroke:#FFFFFF; stroke-width:0.0212; stroke-opacity:1; 
stroke-linecap:round; stroke-linejoin:round;">
</g>
<g style="fill:#FFFFFF; fill-opacity:1.0000; 
stroke:#FFFFFF; stroke-width:0.0000; stroke-opacity:1; 
stroke-linecap:round; stroke-linejoin:round;">
<circle cx="7.7200" cy="22.9600" r="0.4000" /> 
</g>
<g style="fill:#FFFFFF; fill-opacity:1.0000; 
stroke:#FFFFFF; stroke-width:0.0212; stroke-opacity:1; 
stroke-linecap:round; stroke-linejoin:round;">
</g>
<g style="fill:#FFFFFF; fill-opacity:1.0000; 
stroke:#FFFFFF; stroke-width:0.0000; stroke-opacity:1; 
stroke-linecap:round; stroke-linejoin:round;">
<circle cx="7.7200" cy="20.4200" r="0.4000" /> 
</g>
<g style="fill:#FFFFFF; fill-opacity:1.0000; 
stroke:#FFFFFF; stroke-width:0.0212; stroke-opacity:1; 
stroke-linecap:round; stroke-linejoin:round;">
</g>
<g style="fill:#FFFFFF; fill-opacity:1.0000; 
stroke:#FFFFFF; stroke-width:0.0000; stroke-opacity:1; 
stroke-linecap:round; stroke-linejoin:round;">
<circle cx="7.7200" cy="17.8800" r="0.4000" /> 
</g>
<g style="fill:#FFFFFF; fill-opacity:1.0000; 
stroke:#FFFFFF; stroke-width:0.0212; stroke-opacity:1; 
stroke-linecap:round; stroke-linejoin:round;">
</g>
<g style="fill:#FFFFFF; fill-opacity:1.0000; 
stroke:#FFFFFF; stroke-width:0.0000; stroke-opacity:1; 
stroke-linecap:round; stroke-linejoin:round;">
<circle cx="7.7200" cy="15.3400" r="0.4000" /> 
</g>
<g style="fill:#FFFFFF; fill-opacity:1.0000; 
stroke:#FFFFFF; stroke-width:0.0212; stroke-opacity:1; 
stroke-linecap:round; stroke-linejoin:round;">
</g>
<g style="fill:#FFFFFF; fill-opacity:1.0000; 
stroke:#FFFFFF; stroke-width:0.0000; stroke-opacity:1; 
stroke-linecap:round; stroke-linejoin:round;">
<circle cx="15.3400" cy="10.2600" r="0.4500" /> 
</g>
<g style="fill:#FFFFFF; fill-opacity:1.0000; 
stroke:#FFFFFF; stroke-width:0.0212; stroke-opacity:1; 
stroke-linecap:round; stroke-linejoin:round;">
</g>
<g style="fill:#FFFFFF; fill-opacity:1.0000; 
stroke:#FFFFFF; stroke-width:0.0000; stroke-opacity:1; 
stroke-linecap:round; stroke-linejoin:round;">
<circle cx="15.3400" cy="7.7200" r="0.4500" /> 
</g>
<g style="fill:#FFFFFF; fill-opacity:1.0000; 
stroke:#FFFFFF; stroke-width:0.0212; stroke-opacity:1; 
stroke-linecap:round; stroke-linejoin:round;">
</g>
<g style="fill:#FFFFFF; fill-opacity:1.0000; 
stroke:#FFFFFF; stroke-width:0.0000; stroke-opacity:1; 
stroke-linecap:round; stroke-linejoin:round;">
<circle cx="40.7400" cy="10.2600" r="0.4500" /> 
</g>
<g style="fill:#FFFFFF; fill-opacity:1.0000; 
stroke:#FFFFFF; stroke-width:0.0212; stroke-opacity:1; 
stroke-linecap:round; stroke-linejoin:round;">
</g>
<g style="fill:#FFFFFF; fill-opacity:1.0000; 
stroke:#FFFFFF; stroke-width:0.0000; stroke-opacity:1; 
stroke-linecap:round; stroke-linejoin:round;">
<circle cx="40.7400" cy="7.7200" r="0.4500" /> 
</g>
<g style="fill:#FFFFFF; fill-opacity:1.0000; 
stroke:#FFFFFF; stroke-width:0.0212; stroke-opacity:1; 
stroke-linecap:round; stroke-linejoin:round;">
</g>
<g style="fill:#FFFFFF; fill-opacity:1.0000; 
stroke:#FFFFFF; stroke-width:0.0000; stroke-opacity:1; 
stroke-linecap:round; stroke-linejoin:round;">
<circle cx="28.0400" cy="15.3400" r="0.4000" /> 
</g>
<g style="fill:#FFFFFF; fill-opacity:1.0000; 
stroke:#FFFFFF; stroke-width:0.0212; stroke-opacity:1; 
stroke-linecap:round; stroke-linejoin:round;">
</g>
<g style="fill:#FFFFFF; fill-opacity:1.0000; 
stroke:#FFFFFF; stroke-width:0.0000; stroke-opacity:1; 
stroke-linecap:round; stroke-linejoin:round;">
<circle cx="28.0400" cy="22.9600" r="0.4000" /> 
</g>
<g style="fill:#FFFFFF; fill-opacity:1.0000; 
stroke:#FFFFFF; stroke-width:0.0212; stroke-opacity:1; 
stroke-linecap:round; stroke-linejoin:round;">
</g>
<g style="fill:#FFFFFF; fill-opacity:1.0000; 
stroke:#FFFFFF; stroke-width:0.0000; stroke-opacity:1; 
stroke-linecap:round; stroke-linejoin:round;">
<circle cx="28.0400" cy="26.7700" r="0.4000" /> 
</g>
<g style="fill:#FFFFFF; fill-opacity:1.0000; 
stroke:#FFFFFF; stroke-width:0.0212; stroke-opacity:1; 
stroke-linecap:round; stroke-linejoin:round;">
</g>
<g style="fill:#FFFFFF; fill-opacity:1.0000; 
stroke:#FFFFFF; stroke-width:0.0000; stroke-opacity:1; 
stroke-linecap:round; stroke-linejoin:round;">
<circle cx="28.0400" cy="34.3900" r="0.4000" /> 
</g>
<g style="fill:#FFFFFF; fill-opacity:1.0000; 
stroke:#FFFFFF; stroke-width:0.0212; stroke-opacity:1; 
stroke-linecap:round; stroke-linejoin:round;">
</g>
<g style="fill:#FFFFFF; fill-opacity:1.0000; 
stroke:#FFFFFF; stroke-width:0.0000; stroke-opacity:1; 
stroke-linecap:round; stroke-linejoin:round;">
<circle cx="40.7400" cy="26.7700" r="0.4000" /> 
</g>
<g style="fill:#FFFFFF; fill-opacity:1.0000; 
stroke:#FFFFFF; stroke-width:0.0212; stroke-opacity:1; 
stroke-linecap:round; stroke-linejoin:round;">
</g>
<g style="fill:#FFFFFF; fill-opacity:1.0000; 
stroke:#FFFFFF; stroke-width:0.0000; stroke-opacity:1; 
stroke-linecap:round; stroke-linejoin:round;">
<circle cx="40.7400" cy="34.3900" r="0.4000" /> 
</g>
<g style="fill:#FFFFFF; fill-opacity:1.0000; 
stroke:#FFFFFF; stroke-width:0.0212; stroke-opacity:1; 
stroke-linecap:round; stroke-linejoin:round;">
</g>
<g style="fill:#FFFFFF; fill-opacity:1.0000; 
stroke:#FFFFFF; stroke-width:0.0000; stroke-opacity:1; 
stroke-linecap:round; stroke-linejoin:round;">
<circle cx="15.3400" cy="26.7700" r="0.4000" /> 
</g>
<g style="fill:#FFFFFF; fill-opacity:1.0000; 
stroke:#FFFFFF; stroke-width:0.0212; stroke-opacity:1; 
stroke-linecap:round; stroke-linejoin:round;">
</g>
<g style="fill:#FFFFFF; fill-opacity:1.0000; 
stroke:#FFFFFF; stroke-width:0.0000; stroke-opacity:1; 
stroke-linecap:round; stroke-linejoin:round;">
<circle cx="15.3400" cy="34.3900" r="0.4000" /> 
</g>
<g style="fill:#FFFFFF; fill-opacity:1.0000; 
stroke:#FFFFFF; stroke-width:0.0212; stroke-opacity:1; 
stroke-linecap:round; stroke-linejoin:round;">
</g>
<g style="fill:#000000; fill-opacity:1.0000; 
stroke:#000000; stroke-width:0.0212; stroke-opacity:1; 
stroke-linecap:round; stroke-linejoin:round;">
</g>
<g style="fill:#AFAFAF; fill-opacity:1.0000; 
stroke:#AFAFAF; stroke-width:0.0212; stroke-opacity:1; 
stroke-linecap:round; stroke-linejoin:round;">
</g>
<g style="fill:#AFAFAF; fill-opacity:0.0; 
stroke:#AFAFAF; stroke-width:0.1000; stroke-opacity:1; 
stroke-linecap:round; stroke-linejoin:round;">
<circle cx="28.0400" cy="10.2600" r="0.2840" /> 
<circle cx="28.0400" cy="7.7200" r="0.2840" /> 
<circle cx="15.3400" cy="15.3400" r="0.2840" /> 
<circle cx="15.3400" cy="22.9600" r="0.2840" /> 
<circle cx="40.7400" cy="15.3400" r="0.2840" /> 
<circle cx="40.7400" cy="22.9600" r="0.2840" /> 
<circle cx="7.7200" cy="22.9600" r="0.3810" /> 
<circle cx="7.7200" cy="20.4200" r="0.3810" /> 
<circle cx="7.7200" cy="17.8800" r="0.4016" /> 
<circle cx="7.7200" cy="15.3400" r="0.3810" /> 
<circle cx="15.3400" cy="10.2600" r="0.2840" /> 
<circle cx="15.3400" cy="7.7200" r="0.2840" /> 
<circle cx="40.7400" cy="10.2600" r="0.2840" /> 
<circle cx="40.7400" cy="7.7200" r="0.2840" /> 
<circle cx="28.0400" cy="15.3400" r="0.2840" /> 
<circle cx="28.0400" cy="22.9600" r="0.2840" /> 
<circle cx="28.0400" cy="26.7700" r="0.2840" /> 
<circle cx="28.0400" cy="34.3900" r="0.2840" /> 
<circle cx="40.7400" cy="26.7700" r="0.2840" /> 
<circle cx="40.7400" cy="34.3900" r="0.2840" /> 
<circle cx="15.3400" cy="26.7700" r="0.2840" /> 
<circle cx="15.3400" cy="34.3900" r="0.2840" /> 
<g >
</g>
<g >
</g>
<g >
</g>
<g >
</g>
<g >
</g>
<g >
</g>
<g >
</g>
<g >
</g>
<g >
</g>
<g >
</g>
<g >
</g>
<g >
</g>
<g >
</g>
</g>
<g style="fill:#000000; fill-opacity:0.0; 
stroke:#000000; stroke-width:0.1000; stroke-opacity:1; 
stroke-linecap:round; stroke-linejoin:round;">
<g >
</g>
<g >
</g>
<g >
</g>
<g >
</g>
<g >
</g>
<g >
</g>
<g >
</g>
<g >
</g>
<g >
</g>
<g >
</g>
<g >
</g>
<g >
</g>
<g >
</g>
</g> 
</svg>
